<?xml version="1.0" encoding="utf-8"?>
<!-- Generator: Adobe Illustrator 16.0.0, SVG Export Plug-In . SVG Version: 6.00 Build 0)  -->
<!DOCTYPE svg PUBLIC "-//W3C//DTD SVG 1.1//EN" "http://www.w3.org/Graphics/SVG/1.1/DTD/svg11.dtd">
<svg version="1.1" id="Layer_1" xmlns="http://www.w3.org/2000/svg" xmlns:xlink="http://www.w3.org/1999/xlink" x="0px" y="0px"
	 width="960px" height="560px" viewBox="0 0 960 560" enable-background="new 0 0 960 560" xml:space="preserve">
<rect opacity="0" fill="#CCCCCC" width="960" height="559"/>
<g id="Design">
	<g>
		<g>
			<path fill="#005371" d="M608,500.031c0,4.401-3.567,7.969-7.969,7.969H366.969c-4.401,0-7.969-3.567-7.969-7.969V314.969
				c0-4.401,3.568-7.969,7.969-7.969h233.062c4.401,0,7.969,3.567,7.969,7.969V500.031z"/>
			<rect x="384" y="321" fill="#F2F2F2" width="198" height="171"/>
		</g>
		<g>
			<path fill="#F8D0BD" d="M603.754,484.314c1.492,4.141-0.375,8.604-4.166,9.969l-5.494,1.979
				c-3.793,1.366-8.076-0.884-9.566-5.024l-29.693-82.463c-1.492-4.141,0.375-8.603,4.166-9.969l5.496-1.979
				c3.793-1.364,8.074,0.884,9.566,5.025L603.754,484.314z"/>
			<path fill="#F8D0BD" d="M634.031,505.03c1.494,4.142-0.375,8.604-4.166,9.97l-5.494,1.979c-3.793,1.366-8.076-0.885-9.566-5.025
				l-29.691-82.462c-1.492-4.142,0.373-8.603,4.166-9.969l5.494-1.98c3.793-1.364,8.076,0.885,9.566,5.025L634.031,505.03z"/>
			<path fill="#F8D0BD" d="M657.936,506.624c1.492,4.142-0.375,8.604-4.166,9.969l-5.494,1.979
				c-3.793,1.367-8.076-0.884-9.566-5.024l-29.693-82.462c-1.492-4.142,0.373-8.604,4.166-9.97l5.496-1.979
				c3.791-1.364,8.074,0.884,9.564,5.025L657.936,506.624z"/>
			<path fill="#F8D0BD" d="M681.838,509.812c1.494,4.141-0.375,8.604-4.166,9.969l-5.494,1.979
				c-3.793,1.366-8.074-0.884-9.566-5.025l-29.691-82.462c-1.492-4.141,0.373-8.603,4.166-9.969l5.494-1.979
				c3.793-1.365,8.076,0.884,9.566,5.025L681.838,509.812z"/>
			<path fill="#F8D0BD" d="M669.416,474.912c0,0,14.342,39.042,14.342,45.018s-4.781,15.936-4.781,15.936l5.18,12.748
				l-59.359,21.912l-5.578-14.74c0,0-12.35,1.195-28.684-15.14c-16.334-16.334-28.686-26.691-33.863-37.05
				c-5.18-10.358-14.74-16.732-14.74-24.302s8.764-13.146,15.139-7.968c6.373,5.179,26.691,24.302,26.691,24.302
				s3.984,3.983,5.18-2.391s-7.969-23.505,3.982-31.473c11.953-7.968-0.398-6.772,23.107-9.163s25.1-1.195,30.277,1.195
				C651.488,456.188,669.416,474.912,669.416,474.912z"/>
			<path fill="#FFE9E1" d="M572.51,408.586c1.074,3.12-0.584,6.522-3.703,7.596l-0.754,0.26c-3.121,1.075-6.521-0.582-7.598-3.703
				l-1.297-3.767c-1.074-3.12,0.584-6.521,3.703-7.596l0.754-0.26c3.121-1.075,6.521,0.582,7.598,3.704L572.51,408.586z"/>
			<path fill="#FFE9E1" d="M559.242,477.121c2.004,2.621,1.207,6.606-1.789,8.898l-0.723,0.556c-2.998,2.296-7.051,2.031-9.059-0.59
				l-2.424-3.162c-2.006-2.619-1.205-6.604,1.791-8.898l0.721-0.556c2.996-2.292,7.053-2.03,9.059,0.59L559.242,477.121z"/>
			<g>
				<polygon fill="#0086B2" points="734.752,651 644.98,651 624.85,598.067 705.65,571.273 				"/>
				<polygon fill="#F2F2F2" points="695.975,544.762 705.65,571.273 624.85,598.067 616.295,575.572 				"/>
				<polygon opacity="0.4" fill="#FFFFFF" points="652.947,561.362 685.881,651 644.98,651 616.295,575.572 				"/>
				<circle fill="#1A1A1A" cx="690.927" cy="563.088" r="3.72"/>
			</g>
		</g>
		<g>
			<path fill="#F8D0BD" d="M334.947,570.326l5.976-14.84c0,0,18.326-19.97,24.302-50.247l30.676-44.645
				c0,0,6.772-17.144-2.789-20.331c-9.561-3.187-20.043-2.795-32.394,20.312L359,463.757v-47.01c0,0-5.453-2.391-9.038,1.991
				c-3.586,4.383-55.116,55.377-55.912,59.759c-0.797,4.382-16.801,70.913-16.801,70.913L334.947,570.326z"/>
			<path fill="#FFE9E1" d="M389.87,455.207c-1.729,2.809-5.735,3.492-8.949,1.516l-0.777-0.477
				c-3.216-1.977-4.422-5.855-2.693-8.668l2.084-3.396c1.727-2.811,5.734-3.49,8.949-1.516l0.777,0.475
				c3.213,1.977,4.421,5.856,2.694,8.67L389.87,455.207z"/>
			<path fill="#E2BCA6" d="M359,455.258c0,0-18.061,28.418-19.123,35.855L359,463.226V455.258z"/>
			<g>
				<polygon fill="#0086B2" points="227.249,651 317.02,651 337.149,598.067 256.349,571.273 				"/>
				<polygon fill="#F2F2F2" points="266.025,544.762 256.349,571.273 337.149,598.067 345.704,575.572 				"/>
				<polygon opacity="0.4" fill="#FFFFFF" points="309.052,561.362 276.118,651 317.02,651 345.704,575.572 				"/>
				<circle fill="#1A1A1A" cx="271.072" cy="563.088" r="3.719"/>
			</g>
		</g>
	</g>
	<g opacity="0.4">
		
			<rect x="147.213" y="437.254" transform="matrix(0.707 0.7072 -0.7072 0.707 354.2763 21.3294)" fill="#727272" width="8.362" height="2.019"/>
		<path fill="#727272" d="M150.528,430.516c-0.073-0.068-0.574-0.576-1.038-0.218c-0.464,0.358-0.155,0.93-0.032,1.073
			c1.898,2.221,2.392,4.854,2.001,6.607c0.568-0.118,1.054-0.373,1.417-0.772C154.328,435.607,153.248,433.112,150.528,430.516z"/>
		
			<rect x="156.448" y="431.612" transform="matrix(0.7071 0.7071 -0.7071 0.7071 352.9948 13.7659)" fill="#727272" width="6.868" height="2.686"/>
		
			<rect x="166.094" y="430.413" transform="matrix(0.7071 0.7071 -0.7071 0.7071 354.1833 8.7004)" fill="#727272" width="0.992" height="2.949"/>
		<g>
			
				<rect x="167.042" y="430.432" transform="matrix(0.7073 0.7069 -0.7069 0.7073 353.6028 7.5055)" fill="#727272" width="1.392" height="0.614"/>
			<polygon fill="#727272" points="167.922,431.457 167.016,430.55 167.029,430.464 168.014,431.447 			"/>
			<polygon fill="#727272" points="168.455,430.924 167.549,430.018 167.462,430.03 168.446,431.015 			"/>
		</g>
		<g>
			
				<rect x="163.909" y="405.233" transform="matrix(0.7071 0.7071 -0.7071 0.7071 342.0366 3.6676)" fill="#727272" width="5.364" height="18.951"/>
			
				<rect x="166.139" y="406.156" transform="matrix(0.7074 0.7068 -0.7068 0.7074 342.8048 3.2188)" fill="#727272" width="2.752" height="18.952"/>
			
				<rect x="164.646" y="404.803" transform="matrix(0.7072 0.707 -0.707 0.7072 341.5608 3.8251)" fill="#727272" width="3.032" height="18.952"/>
		</g>
		<polygon fill="#727272" points="174.132,417.128 174.133,417.129 174.136,417.128 174.745,417.108 174.76,416.622 
			175.247,416.608 175.262,416.12 175.748,416.106 175.763,415.619 176.25,415.605 176.264,415.118 176.751,415.104 
			176.766,414.617 177.252,414.602 177.268,414.115 177.754,414.101 177.769,413.614 178.256,413.6 178.271,413.112 
			178.757,413.098 178.771,412.611 179.258,412.596 179.273,412.109 179.76,412.095 179.774,411.608 180.262,411.594 
			180.276,411.107 180.763,411.092 180.777,410.605 181.264,410.591 181.279,410.104 181.765,410.089 181.78,409.602 
			182.267,409.588 182.282,409.102 182.768,409.087 182.783,408.6 183.27,408.585 183.285,408.099 183.771,408.083 183.786,407.597 
			184.272,407.581 184.288,407.096 184.774,407.081 184.789,406.595 185.275,406.579 185.29,406.093 185.777,406.077 
			185.792,405.591 186.275,405.576 186.275,405.578 186.277,405.576 186.278,405.576 186.278,405.575 189.524,402.33 
			188.905,401.71 173.81,416.806 174.129,417.125 174.127,417.128 		"/>
		
			<rect x="179.506" y="397.946" transform="matrix(0.7076 0.7066 -0.7066 0.7076 342.0025 -7.7831)" fill="#727272" width="1.801" height="22.887"/>
		<g>
			
				<rect x="187.693" y="381.448" transform="matrix(0.7071 0.7072 -0.7072 0.7071 332.2112 -20.1072)" fill="#727272" width="5.364" height="18.952"/>
			
				<rect x="189.922" y="382.371" transform="matrix(0.7071 0.7071 -0.7071 0.7071 333.1081 -20.4988)" fill="#727272" width="2.752" height="18.952"/>
			
				<rect x="188.431" y="381.019" transform="matrix(0.7071 0.7071 -0.7071 0.7071 331.7557 -19.9389)" fill="#727272" width="3.031" height="18.952"/>
		</g>
		<g>
			
				<rect x="193.841" y="384.107" transform="matrix(0.707 0.7072 -0.7072 0.707 329.5043 -26.6834)" fill="#727272" width="6.232" height="0.471"/>
			
				<rect x="196.431" y="385.18" transform="matrix(0.7071 0.7071 -0.7071 0.7071 330.5314 -27.1425)" fill="#727272" width="3.197" height="0.472"/>
			
				<rect x="194.652" y="383.562" transform="matrix(0.7072 0.707 -0.707 0.7072 328.8742 -26.4859)" fill="#727272" width="3.522" height="0.473"/>
		</g>
		<g>
			
				<rect x="182.149" y="394.544" transform="matrix(0.7071 0.7072 -0.7072 0.7071 333.8281 -16.2177)" fill="#727272" width="8.678" height="0.536"/>
			
				<rect x="185.756" y="396.037" transform="matrix(0.7071 0.7072 -0.7072 0.7071 335.3207 -16.8368)" fill="#727272" width="4.452" height="0.537"/>
			
				<rect x="183.075" y="393.581" transform="matrix(0.7071 0.7071 -0.7071 0.7071 332.8338 -15.8316)" fill="#727272" width="4.906" height="0.537"/>
		</g>
		<g>
			
				<rect x="183.817" y="393.662" transform="matrix(0.7071 0.7071 -0.7071 0.7071 333.5529 -16.8138)" fill="#727272" width="6.51" height="1.129"/>
			
				<rect x="186.523" y="394.783" transform="matrix(0.707 0.7073 -0.7073 0.707 334.7589 -17.2479)" fill="#727272" width="3.34" height="1.129"/>
			
				<rect x="184.542" y="392.972" transform="matrix(0.707 0.7072 -0.7072 0.707 332.9395 -16.5005)" fill="#727272" width="3.68" height="1.13"/>
		</g>
		<g>
			
				<rect x="162.735" y="414.496" transform="matrix(0.7072 0.707 -0.707 0.7072 342.2416 4.2498)" fill="#727272" width="6.51" height="1.627"/>
			
				<rect x="165.441" y="415.617" transform="matrix(0.7072 0.707 -0.707 0.7072 343.3636 3.7861)" fill="#727272" width="3.34" height="1.626"/>
			
				<rect x="163.46" y="413.806" transform="matrix(0.707 0.7072 -0.7072 0.707 341.6341 4.571)" fill="#727272" width="3.68" height="1.627"/>
		</g>
		<g>
			
				<rect x="161.227" y="415.46" transform="matrix(0.7071 0.7071 -0.7071 0.7071 342.5888 5.0367)" fill="#727272" width="7.973" height="1.25"/>
		</g>
		
			<rect x="171.128" y="390.854" transform="matrix(0.7072 0.7071 -0.7071 0.7072 337.9841 -6.0621)" fill="#727272" width="10.366" height="28.272"/>
		
			<rect x="152.015" y="438.664" transform="matrix(0.707 0.7072 -0.7072 0.707 356.2837 20.5145)" fill="#727272" width="2.736" height="3.177"/>
		<path fill="#727272" d="M152.343,437.023c-0.165,0.449-0.402,0.827-0.953,1.227c-1.837,1.333-5.026,0.788-7.64-1.826
			c-2.615-2.614-3.469-6.124-1.856-7.723c0.703-0.697,1.452-1.008,2.293-1.063c1.738-0.116,3.771,1.028,5.532,2.789
			C152.006,432.715,153.042,435.129,152.343,437.023z"/>
		
			<rect x="178.466" y="400.066" transform="matrix(0.7068 0.7074 -0.7074 0.7068 340.9997 -6.987)" fill="#727272" width="0.928" height="15.695"/>
		
			<rect x="181.307" y="403.361" transform="matrix(0.7073 0.7069 -0.7069 0.7073 343.8966 -8.3865)" fill="#727272" width="1.536" height="15.396"/>
		
			<rect x="178.387" y="401.627" transform="matrix(0.707 0.7072 -0.7072 0.707 342.4404 -7.6801)" fill="#727272" width="4.205" height="15.695"/>
		<path fill="#727272" d="M192.084,410.156l-4.466-4.468l-10.957,10.958l6.331,6.331c2.117,2.116,2.117,5.55,0,7.665l-8.224,8.226
			c-2.117,2.116-5.549,2.116-7.666,0l-6.332-6.331l-10.704,10.703c10.171,8.043,24.45,7.903,35.251-2.899
			C195.232,430.427,196.281,419.658,192.084,410.156z"/>
		<polygon fill="#727272" points="160.77,432.537 155.694,437.612 164.923,436.689 		"/>
		<path fill="#727272" d="M192.166,410.074l-4.467-4.466c-0.021-0.021-0.05-0.034-0.081-0.034s-0.06,0.013-0.082,0.034
			l-10.957,10.957c-0.021,0.021-0.033,0.051-0.033,0.081s0.012,0.06,0.033,0.081l0.025,0.024l0.22-0.105l10.794-10.795l4.357,4.356
			l0.2-0.12C192.171,410.084,192.169,410.079,192.166,410.074z"/>
		<path fill="#727272" d="M192.189,410.109c-0.004-0.007-0.009-0.015-0.015-0.021l-0.2,0.12l0.013,0.014
			c2.189,4.965,2.826,9.96,1.893,14.851c-1.024,5.367-3.932,10.477-8.644,15.188c-5.152,5.151-11.303,8.085-17.788,8.482
			c-6.085,0.374-12.19-1.584-17.207-5.513l-0.178,0.154c5.069,3.981,11.244,5.966,17.399,5.588
			c6.543-0.402,12.745-3.357,17.937-8.55c4.744-4.745,7.674-9.895,8.706-15.308C195.049,420.173,194.405,415.124,192.189,410.109z"
			/>
		<path fill="#727272" d="M182.911,423.059c1.002,1.002,1.554,2.335,1.554,3.752s-0.552,2.75-1.554,3.752l-8.225,8.224
			c-2.069,2.069-5.435,2.069-7.503,0l-6.331-6.33c-0.045-0.046-0.118-0.046-0.163,0l-0.025,0.024l0.074,0.252l0.033-0.033l6.25,6.25
			c1.045,1.046,2.436,1.621,3.914,1.621c1.479,0,2.869-0.575,3.915-1.621l8.225-8.225c1.046-1.046,1.622-2.436,1.622-3.914
			s-0.576-2.869-1.622-3.915l-6.25-6.249h0l-0.22,0.105L182.911,423.059z"/>
		<path fill="#727272" d="M160.852,432.456c-0.045-0.046-0.118-0.046-0.163,0l-0.025,0.024l0.074,0.252l0.033-0.033l4.005,4.002
			l0.246-0.075L160.852,432.456z"/>
		<path fill="#727272" d="M150.24,443.229l10.498-10.496l-0.074-0.252l-10.678,10.679c-0.024,0.022-0.036,0.055-0.034,0.087
			c0.002,0.033,0.018,0.063,0.043,0.084c0.023,0.019,0.046,0.036,0.069,0.055l0.178-0.154
			C150.241,443.229,150.241,443.229,150.24,443.229z"/>
		<path fill="#727272" d="M165.469,440.675c-0.649-1.503-1.755-2.999-3.413-2.999s-3,1.343-3,2.999v18.218h15.646L165.469,440.675z"
			/>
		<g>
			<path fill="#727272" d="M165.575,440.63c-0.495-1.146-1.609-3.069-3.518-3.069c-1.718,0-3.115,1.397-3.115,3.114v18.218v0.116
				h0.115h15.646h0.187l-0.084-0.167C174.805,458.842,165.572,440.624,165.575,440.63z M174.702,458.778h-15.646l0.115,0.114
				v-18.218c0-1.591,1.295-2.885,2.886-2.885c1.778,0,2.835,1.837,3.307,2.932c0.003,0.006,9.236,18.224,9.236,18.224
				L174.702,458.778z"/>
		</g>
		<polygon fill="#727272" points="180.302,461.509 140.811,461.509 143.12,456.228 177.993,456.228 		"/>
		<path fill="#727272" d="M143.091,456.181l-2.299,5.225c-0.015,0.033-0.012,0.071,0.006,0.104l0.278-0.172h-0.003l2.199-4.994
			h0.003l-0.156-0.194C143.108,456.158,143.097,456.168,143.091,456.181z"/>
		<path fill="#727272" d="M177.917,456.112h-34.721c-0.031,0-0.056,0.016-0.078,0.036l0.156,0.194h34.568l0.001,0.004l0.148-0.202
			C177.971,456.126,177.946,456.112,177.917,456.112z"/>
		<path fill="#727272" d="M180.322,461.405l-2.299-5.225c-0.007-0.015-0.02-0.025-0.031-0.036l-0.148,0.202l2.197,4.99h-0.013
			l0.286,0.178C180.334,461.481,180.338,461.441,180.322,461.405z"/>
		
			<rect x="142.341" y="422.926" transform="matrix(0.7071 0.7071 -0.7071 0.7071 346.4392 13.8314)" fill="#727272" width="28.367" height="4.342"/>
		
			<rect x="145.159" y="422.926" transform="matrix(0.7071 0.7071 -0.7071 0.7071 346.4401 13.832)" fill="#727272" width="22.729" height="4.343"/>
		
			<ellipse transform="matrix(0.7071 0.7071 -0.7071 0.7071 349.2301 22.6042)" fill="#727272" cx="147.33" cy="432.844" rx="6.471" ry="3.677"/>
		<path fill="#727272" d="M145.51,430.804c0.229-1.609,2.529-1.481,3.678-0.792c0.356,0.164,0.712,0.355,1.063,0.568
			c-0.104-0.112-0.21-0.225-0.321-0.336c-2.527-2.527-5.74-3.41-7.175-1.976c-1.436,1.437-0.551,4.648,1.976,7.176
			c2.312,2.312,5.198,3.247,6.771,2.29C148.326,437.182,145.116,434.151,145.51,430.804z"/>
		<circle fill="#727272" cx="162.426" cy="441.479" r="1.623"/>
		<circle fill="#727272" cx="182.892" cy="419.126" r="1.92"/>
		<path fill="#727272" d="M186.288,407.188l-6.549,6.549c0.849,1.249,2.28,2.071,3.905,2.071c2.604,0,4.715-2.111,4.715-4.717
			C188.359,409.468,187.538,408.035,186.288,407.188z"/>
		<circle fill="#727272" cx="162.104" cy="441.007" r="1.622"/>
		<circle fill="#727272" cx="162.104" cy="441.007" r="1.478"/>
		<g>
			<g>
				
					<rect x="161.226" y="415.463" transform="matrix(0.7071 0.7071 -0.7071 0.7071 342.6082 5.0463)" fill="#727272" width="7.973" height="1.25"/>
			</g>
			<path fill="#727272" d="M163.155,414.912l0.096,0.095l0.88-0.879l-0.096-0.096L163.155,414.912z M163.03,414.786l0.09,0.091
				l0.879-0.88l-0.09-0.09L163.03,414.786z M163.292,415.048l0.1,0.101l0.88-0.879l-0.101-0.102L163.292,415.048z M162.913,414.67
				l0.086,0.086l0.879-0.879l-0.085-0.087L162.913,414.67z M163.607,415.363l0.11,0.11l0.88-0.88l-0.111-0.109L163.607,415.363z
				 M163.441,415.198l0.104,0.105l0.88-0.88l-0.105-0.106L163.441,415.198z M164.002,415.759l0.12,0.12l0.879-0.88l-0.12-0.12
				L164.002,415.759z M163.792,415.549l0.115,0.115l0.88-0.879l-0.116-0.116L163.792,415.549z M164.532,416.289l0.13,0.129
				l0.88-0.879l-0.13-0.13L164.532,416.289z M164.245,416.002l0.125,0.124l0.88-0.88l-0.125-0.124L164.245,416.002z
				 M162.142,413.899l0.042,0.041l0.879-0.879l-0.042-0.042L162.142,413.899z M162.076,413.833l0.037,0.037l0.879-0.88l-0.037-0.037
				L162.076,413.833z M161.953,413.71l0.027,0.026l0.88-0.88l-0.027-0.026L161.953,413.71z M162.211,413.968l0.046,0.046l0.879-0.88
				l-0.046-0.046L162.211,413.968z M162.014,413.77l0.032,0.033l0.88-0.88l-0.032-0.032L162.014,413.77z M162.706,414.462
				l0.076,0.075l0.88-0.879l-0.076-0.075L162.706,414.462z M162.522,414.278l0.066,0.065l0.88-0.879l-0.066-0.065L162.522,414.278z
				 M162.611,414.368l0.071,0.07l0.879-0.88l-0.071-0.071L162.611,414.368z M162.438,414.194l0.061,0.062l0.88-0.88l-0.061-0.061
				L162.438,414.194z M162.282,414.039l0.052,0.052l0.879-0.88l-0.051-0.051L162.282,414.039z M162.807,414.562l0.08,0.081
				l0.88-0.88l-0.081-0.081L162.807,414.562z M167.026,418.782l0.061,0.062l0.88-0.88l-0.061-0.062L167.026,418.782z
				 M167.11,418.866l0.056,0.058l0.88-0.88l-0.057-0.057L167.11,418.866z M167.19,418.947l0.052,0.052l0.879-0.881l-0.052-0.051
				L167.19,418.947z M166.937,418.693l0.066,0.066l0.879-0.88l-0.066-0.066L166.937,418.693z M164.863,416.619l0.13,0.131l0.88-0.88
				l-0.13-0.131L164.863,416.619z M167.268,419.024l0.046,0.047l0.879-0.88l-0.046-0.048L167.268,419.024z M167.412,419.167
				l0.036,0.038l0.88-0.88l-0.037-0.036L167.412,419.167z M166.744,418.5l0.076,0.076l0.88-0.88l-0.076-0.075L166.744,418.5z
				 M167.479,419.235l0.032,0.032l0.879-0.88l-0.032-0.031L167.479,419.235z M167.341,419.098l0.042,0.042l0.88-0.88l-0.042-0.042
				L167.341,419.098z M166.843,418.6l0.071,0.071l0.88-0.88l-0.071-0.071L166.843,418.6z M165.979,417.735l0.105,0.105l0.88-0.88
				l-0.106-0.104L165.979,417.735z M165.808,417.564l0.11,0.11l0.879-0.88l-0.11-0.11L165.808,417.564z M165.618,417.374
				l0.115,0.116l0.879-0.881l-0.115-0.115L165.618,417.374z M165.156,416.911l0.124,0.126l0.879-0.881l-0.124-0.123L165.156,416.911
				z M165.402,417.159l0.12,0.12l0.88-0.88l-0.12-0.12L165.402,417.159z M166.525,418.281l0.086,0.087l0.879-0.881l-0.085-0.085
				L166.525,418.281z M166.638,418.395l0.081,0.081l0.879-0.88l-0.082-0.081L166.638,418.395z M166.404,418.161l0.09,0.091
				l0.88-0.881l-0.09-0.09L166.404,418.161z M166.274,418.03l0.096,0.096l0.88-0.88l-0.096-0.096L166.274,418.03z M166.133,417.89
				l0.101,0.101l0.879-0.88l-0.1-0.101L166.133,417.89z M162.358,414.115l0.057,0.057l0.88-0.88l-0.058-0.057L162.358,414.115z
				 M168.424,418.422l-0.879,0.879l0.026,0.027l0.879-0.88L168.424,418.422z"/>
		</g>
		<polygon fill="#727272" points="167.68,431.941 164.488,428.749 164.476,428.736 164.458,428.73 163.057,428.236 157.503,422.682 
			157.388,422.797 162.956,428.364 162.969,428.377 162.985,428.383 164.387,428.877 167.565,432.056 		"/>
		<g>
			<path fill="#727272" d="M153.03,437.099c0,0-0.947,0.783-1.603,0.885c-1.772,0.353-5.043-0.769-6.967-2.508
				c-0.155-0.14-0.711-0.526-1.213-0.075c-0.501,0.453,0.182,1.196,0.221,1.242c2.538,2.969,5.475,4.233,7.162,2.791
				c0.02-0.017,0.037-0.035,0.057-0.053c0.182-0.131,0.302-0.24,0.302-0.24L153.03,437.099z"/>
			<g>
				<path fill="#727272" d="M153.56,434.995c-0.261-1.146-0.649-1.762-1.41-2.801c-0.775-1.06-1.802-2.017-2.138-2.053
					c-0.048-0.006-0.142-0.006-0.184-0.003l0.064,0.068c0.034,0.001,0.054,0.009,0.091,0.016c0.235,0.036,1.232,0.891,2.073,2.039
					c0.83,1.133,1.147,1.691,1.391,2.76c0.132,0.577-0.028,1.292-0.417,1.864c-0.401,0.59-1.002,0.975-1.695,1.081
					c-1.635,0.253-4.711-0.852-6.083-1.933c-1.29-1.018-1.48-0.913-1.726-0.84c-0.137,0.04-0.294,0.214-0.294,0.214
					c0.029-0.009,0.068-0.076,0.222-0.138c0.239-0.095,0.486-0.125,1.727,0.853c1.389,1.096,4.509,2.215,6.171,1.958
					c0.725-0.112,1.354-0.515,1.773-1.131C153.533,436.353,153.699,435.604,153.56,434.995z"/>
			</g>
		</g>
		<circle fill="#727272" cx="182.418" cy="418.492" r="1.929"/>
		<circle fill="#727272" cx="182.418" cy="418.492" r="1.748"/>
		<g>
			<circle fill="#727272" cx="183.061" cy="410.134" r="4.609"/>
			<circle fill="#727272" cx="183.061" cy="410.134" r="4.501"/>
			<circle fill="#727272" cx="183.061" cy="410.134" r="4.001"/>
			<circle fill="#727272" cx="183.061" cy="410.134" r="3.857"/>
		</g>
	</g>
	<g opacity="0.4">
		<path fill="#3A3A3A" d="M760.825,434.991c0,5.043,4.091,9.133,9.135,9.133s9.133-4.09,9.133-9.133
			c0-5.046-4.089-9.135-9.133-9.135S760.825,429.945,760.825,434.991z M765.168,434.991c0-2.647,2.145-4.793,4.792-4.793
			c2.646,0,4.791,2.146,4.791,4.793c0,2.646-2.146,4.79-4.791,4.79C767.312,439.781,765.168,437.637,765.168,434.991z"/>
		<path fill="#3A3A3A" d="M799.83,434.991c0,5.043,4.089,9.133,9.134,9.133c5.044,0,9.134-4.09,9.134-9.133
			c0-5.046-4.09-9.135-9.134-9.135C803.919,425.856,799.83,429.945,799.83,434.991z M804.172,434.991
			c0-2.647,2.146-4.793,4.792-4.793c2.646,0,4.792,2.146,4.792,4.793c0,2.646-2.146,4.79-4.792,4.79
			C806.318,439.781,804.172,437.637,804.172,434.991z"/>
		<path fill="#93CEE5" d="M790.659,397.188c0.181-0.45,0.282-0.94,0.282-1.456v-1.649c0-2.163-1.754-3.919-3.918-3.919
			s-3.919,1.756-3.919,3.919v1.649c0,0.516,0.103,1.006,0.283,1.456H790.659z"/>
		<path fill="#3A3A3A" d="M752.81,414.222v14.812c0,3.271,2.653,5.925,5.925,5.925h0.85c0.018-5.716,4.655-10.345,10.376-10.345
			c5.719,0,10.357,4.629,10.376,10.345h7.034c0.275,0,0.545-0.026,0.81-0.062h10.412c0.051-5.688,4.673-10.283,10.372-10.283
			c5.673,0,10.278,4.557,10.368,10.208c4.405-0.515,7.811-3.916,7.811-8.045v-20.297c0-4.484-4.015-8.119-8.966-8.119h-43.344
			c-4.951,0-8.967,3.635-8.967,8.119v1.817h-7.132C755.463,408.297,752.81,410.95,752.81,414.222z M790.941,411.533
			c0-4.248,3.622-7.689,8.089-7.689c4.468,0,8.089,3.441,8.089,7.689c0,4.247-3.621,7.689-8.089,7.689
			C794.563,419.223,790.941,415.78,790.941,411.533z M767.786,408.791c0-10.04,10.204-8.888,10.204-8.888l-0.165,8.888H767.786z"/>
		<polygon fill="#93CEE5" points="794.561,409.505 797.067,409.505 797.067,407.124 800.753,407.124 800.753,409.505 
			803.26,409.505 803.26,413.01 800.753,413.01 800.753,415.392 797.067,415.392 797.067,413.01 794.561,413.01 		"/>
	</g>
	<g opacity="0.4">
		<g>
			<g>
				<path fill="#3A3A3A" d="M316.526,286.094h-0.603v27.426c0,3.085,0,5.748,1.652,7.4c1.341,1.342,6.162,4.71,7.333,5.522
					c0,0.515,0,2.902,0,2.902h1.207v-3.536l-0.261-0.18c-0.06-0.041-6.006-4.143-7.426-5.562c-1.299-1.299-1.299-3.73-1.299-6.547
					c0,0,0-25.065,0-26.219c1.109,0,14.015,0,14.015,0v-1.207H316.526z"/>
			</g>
			<g>
				<path fill="#3A3A3A" d="M345.762,286.094h-14.618v1.207c0,0,12.905,0,14.014,0c0,0.889,0,26.219,0,26.219
					c0,2.816,0,5.248-1.298,6.547c-1.435,1.435-6.602,5.546-6.654,5.588l-0.228,0.181v3.51h1.208c0,0,0-2.446,0-2.928
					c1.019-0.813,5.201-4.169,6.527-5.497c1.653-1.652,1.653-4.315,1.653-7.4v-27.426H345.762z"/>
			</g>
			<rect x="324.975" y="330.418" fill="#3A3A3A" width="12.875" height="3.934"/>
			<g>
				<rect x="319.074" y="290.117" fill="#93CEE5" width="24.408" height="1.207"/>
			</g>
			<rect x="319.343" y="297.694" fill="#3A3A3A" width="23.604" height="9.12"/>
			<rect x="329.535" y="339.804" fill="#3A3A3A" width="3.487" height="7.778"/>
		</g>
		<g>
			<path fill="#3A3A3A" d="M330.785,349.034v18.577c0,1.088,0.298,2.008,0.861,2.662c0.527,0.61,1.248,0.947,2.028,0.947
				c1.504,0,3.028-1.279,3.028-3.723v-6.611c0-1.023,0.228-1.855,0.656-2.404c0.336-0.429,0.791-0.666,1.278-0.666
				c0.972,0,2.004,0.951,2.004,2.712v13.853h1.076v-13.853c0-2.46-1.587-3.786-3.08-3.786c-0.825,0-1.581,0.383-2.125,1.078
				c-0.579,0.739-0.885,1.799-0.885,3.066v6.611c0,1.737-0.982,2.646-1.953,2.646c-0.463,0-0.894-0.204-1.213-0.574
				c-0.393-0.455-0.6-1.133-0.6-1.959v-18.577H330.785z"/>
		</g>
		<g>
			<rect x="330.583" y="335.411" fill="#93CEE5" width="1.075" height="3.048"/>
		</g>
	</g>
	<g opacity="0.4">
		<path fill="#3A3A3A" d="M647.328,287.995c-0.534,0.46-1.063,0.913-1.649,1.33c-0.076,0.051-0.155,0.104-0.244,0.153
			c-0.046,0.025-0.091,0.049-0.168,0.072c-0.032,0.004-0.032,0.011-0.096,0.009c-0.041-0.002-0.088-0.02-0.123-0.046
			c-0.045-0.033-0.019-0.017-0.031-0.027l-0.077-0.11l-0.297-0.416c-0.126-0.187-0.274-0.378-0.424-0.57
			c-1.231,2.364-2.464,4.729-3.718,7.08l-0.562,1.061l-0.048-1.205l-0.084-2.155l-0.036-1.084l-0.024-1.079l-0.093-4.313
			l-0.105-4.977l-2.518,10.205l-0.35,1.42l-0.646-1.314l-2.686-5.462l-2.368,7.069l-0.463,1.388l-0.616-1.328l-1.642-3.541
			l-0.408-0.885l-0.102-0.221l-0.1-0.206l-0.215-0.439l-0.434-0.877c-0.126,0.184-0.246,0.37-0.377,0.551
			c-0.159,0.227-0.324,0.451-0.5,0.676c-0.088,0.112-0.178,0.224-0.278,0.341c-0.052,0.058-0.104,0.115-0.169,0.179
			c-0.077,0.064-0.106,0.125-0.33,0.237c-0.036,0.017-0.074,0.028-0.112,0.04c-0.068,0.024-0.288,0.027-0.41-0.045
			c-0.036-0.017-0.065-0.034-0.092-0.055l-0.018-0.012l-0.009-0.008l-0.005-0.004l-0.002-0.002c-0.25-0.284-0.071-0.079-0.125-0.144
			l-0.002-0.003l-0.007-0.014l-0.045-0.112l-0.092-0.228c-0.055-0.146-0.126-0.32-0.162-0.443l-0.246-0.786l-0.253-0.855
			l-1.414,0.944l-0.7,0.468l-0.136-0.827l-0.571-3.461l-1.455,5.09l-2.128,7.319l-0.857-0.03l-0.949-4.812l-1.21,2.634l-0.668-0.141
			c0-3.614,0.014-7.23,0.044-10.845l-3.483,5.435l-0.032,0.051l-0.056-0.001l-5.558-0.033l5.495-0.177l3.67-6.119l0.376-0.627
			l0.019,0.737c0.081,3.324,0.142,6.647,0.196,9.972l1.002-2.291l0.479-1.091l0.252,1.172l0.906,4.191l1.54-5.616l2.051-7.34
			l1.02,0.056l0.843,4.92l1.333-0.903l0.613-0.416l0.218,0.719l0.47,1.549l0.206,0.643c0.145-0.188,0.286-0.384,0.425-0.582
			c0.305-0.435,0.606-0.886,0.896-1.332l0.538-0.836l0.445,0.89l0.876,1.745l0.219,0.436l0.113,0.232l0.103,0.222l0.413,0.883
			l1.037,2.224l2.376-6.959l0.437-1.283l0.591,1.217l2.605,5.381l3.129-12.301l0.951,0.112l0.025,8.629l0.014,4.313l0.003,1.079
			l0.019,1.073l0.021,0.959c1.15-2.081,2.308-4.158,3.473-6.231l0.174-0.306l0.196,0.275c0.21,0.298,0.426,0.572,0.632,0.897
			l0.258,0.396c0.002-0.001,0.003-0.001,0.004-0.003c0.07-0.034,0.143-0.081,0.216-0.127c0.582-0.387,1.145-0.843,1.698-1.29
			l0.047-0.038l0.055,0.001l7.648,0.135c1.428-3.485,1.434-5.669,1.434-5.669c0.254-15.179-9.612-17.276-14.031-17.603
			c-6.887-0.51-12.339,3.797-13.135,3.956c-0.877,0.174,0.508,1.02-4.594-2.68c-5.101-3.699-11.731-0.51-11.731-0.51
			c-12.5,6.122-10.587,17.729-10.587,17.729c1.022,13.901,25.762,29.333,25.762,29.333s1.021,0.765,1.531,0.638
			c0.51-0.125,0.51,0.891,13.646-10.203c6.839-5.776,10.115-11.134,11.687-14.946L647.328,287.995z"/>
		<path fill="#93CEE5" d="M645.317,289.249l0.012,0.014l0.003,0.008c-0.002-0.006-0.002-0.005-0.001-0.003
			c-0.002-0.004-0.01-0.017-0.016-0.023L645.317,289.249z"/>
		<path fill="#93CEE5" d="M645.299,289.215v0.002l0.002,0.003c-0.002-0.005,0.024,0.024-0.005-0.007L645.299,289.215z"/>
	</g>
	<g opacity="0.4">
		<g>
			<path fill="#3A3A3A" d="M727.311,424.388h-48.89c-2.17,0-3.812-0.766-4.612-2.157c-0.802-1.392-0.649-3.196,0.436-5.073
				l21.548-28.917v-19.171c-0.783-0.112-1.393-0.789-1.393-1.605c0-0.894,0.726-1.624,1.619-1.624h13.949
				c0.899,0,1.63,0.73,1.63,1.624c0,0.895-0.73,1.62-1.63,1.62h-0.024v19.156l21.509,28.858c1.125,1.936,1.275,3.74,0.475,5.132
				C731.122,423.622,729.48,424.388,727.311,424.388L727.311,424.388z M696.019,367.005c-0.246,0-0.453,0.205-0.453,0.459
				c0,0.255,0.207,0.453,0.453,0.453h0.943v20.714l-21.744,29.165c-0.829,1.446-0.981,2.83-0.396,3.848
				c0.588,1.018,1.864,1.574,3.6,1.574h48.89c1.739,0,3.016-0.557,3.603-1.574c0.585-1.018,0.433-2.401-0.436-3.906l-21.705-29.106
				v-20.714h1.195c0.255,0,0.463-0.198,0.463-0.453c0-0.254-0.208-0.459-0.463-0.459H696.019L696.019,367.005z"/>
		</g>
		<circle fill="#3A3A3A" cx="707.305" cy="359.966" r="3.411"/>
		<path fill="#3A3A3A" d="M700.2,354.035c0,1.389-1.126,2.518-2.518,2.518c-1.386,0-2.519-1.129-2.519-2.518
			c0-1.39,1.133-2.517,2.519-2.517C699.074,351.519,700.2,352.646,700.2,354.035z"/>
		<path fill="#3A3A3A" d="M730.983,417.444l-21.625-29.006v-5.951h-12.98v5.951l-21.63,29.006c-2.015,3.498-0.365,6.359,3.673,6.359
			h48.89C731.348,423.804,733.001,420.942,730.983,417.444z M694.271,414.394c-1.885,0-3.412-1.529-3.412-3.416
			c0-1.883,1.527-3.411,3.412-3.411c1.886,0,3.411,1.528,3.411,3.411C697.683,412.864,696.157,414.394,694.271,414.394z
			 M700.988,398.229c-1.033,0-1.875-0.841-1.875-1.878c0-1.034,0.842-1.876,1.875-1.876c1.039,0,1.88,0.842,1.88,1.876
			C702.868,397.388,702.027,398.229,700.988,398.229z M706.41,406.67c-1.39,0-2.516-1.126-2.516-2.517
			c0-1.393,1.126-2.518,2.516-2.518c1.388,0,2.52,1.125,2.52,2.518C708.93,405.544,707.798,406.67,706.41,406.67z M712.34,419.169
			c-1.886,0-3.41-1.527-3.41-3.41c0-1.885,1.524-3.416,3.41-3.416c1.885,0,3.411,1.531,3.411,3.416
			C715.751,417.642,714.225,419.169,712.34,419.169z"/>
		<path fill="#3A3A3A" d="M705.769,347.685c0,1.034-0.842,1.876-1.874,1.876c-1.044,0-1.879-0.842-1.879-1.876
			c0-1.039,0.835-1.879,1.879-1.879C704.927,345.806,705.769,346.646,705.769,347.685z"/>
	</g>
	<path opacity="0.4" fill="#3A3A3A" d="M272.665,346.392c0.003,0.016-0.002,0.04,0.001,0.056c0,0,0.004,0.018,0.007,0.028
		c0.004,0.021,0.008,0.037,0.015,0.066l0.011-0.002c0.287,1.038,1.333,1.681,2.395,1.441c1.057-0.236,1.725-1.263,1.542-2.324l0,0
		l-0.002-0.01c0.001-0.024,0-0.06-0.007-0.089c-0.003-0.016-0.011-0.022-0.014-0.036c-0.301-1.384-0.393-2.692-0.321-3.939
		l20.128-4.515c0.613,1.119,1.092,2.37,1.412,3.788c0.004,0.016,0.006,0.033,0.008,0.045c0.244,1.087,1.332,1.783,2.422,1.539
		c1.091-0.245,1.772-1.338,1.528-2.425c-1.958-8.727-8.595-12.426-15.134-15.253c4.705-5.351,9.126-11.532,7.169-20.258
		c-1.957-8.724-8.596-12.434-15.133-15.253c4.704-5.354,9.125-11.536,7.169-20.256c-0.247-1.1-1.326-1.784-2.417-1.539
		c-1.09,0.244-1.779,1.325-1.533,2.425c0.002,0.009,0.007,0.021,0.01,0.037c0.349,1.564,0.44,3.027,0.31,4.42l-19.897,4.462
		c-0.705-1.197-1.251-2.549-1.607-4.111c-0.004-0.017-0.003-0.042-0.006-0.055c-0.247-1.1-1.338-1.781-2.421-1.538
		c-1.096,0.245-1.785,1.327-1.538,2.427c1.956,8.719,8.6,12.42,15.14,15.252c-4.708,5.341-9.133,11.532-7.176,20.255
		c1.957,8.728,8.601,12.427,15.14,15.255C275.188,331.595,270.792,337.747,272.665,346.392z M267.251,283.823
		c-1.132-0.763-2.183-1.61-3.1-2.585l17.467-3.917c-0.413,1.272-0.995,2.485-1.701,3.662L267.251,283.823z M274.751,287.591
		c-1.332-0.555-2.637-1.115-3.884-1.729l6.656-1.492C276.652,285.458,275.716,286.521,274.751,287.591z M279.086,293.854
		l-5.58,1.251c0.747-0.893,1.529-1.786,2.331-2.674C276.938,292.891,278.026,293.366,279.086,293.854z M270.988,298.512
		l11.828-2.653c1.062,0.67,2.049,1.406,2.933,2.239l-16.453,3.691C269.741,300.657,270.314,299.57,270.988,298.512z
		 M268.465,304.832l19.329-4.335c0.63,0.91,1.154,1.944,1.561,3.094l-20.985,4.706C268.252,307.084,268.29,305.923,268.465,304.832z
		 M268.899,311.024l21.154-4.745c0.2,1.233,0.235,2.406,0.137,3.526l-19.92,4.467C269.705,313.302,269.24,312.226,268.899,311.024z
		 M275.272,319.37c-1.172-0.781-2.241-1.648-3.185-2.657l17.507-3.927c-0.418,1.313-1.024,2.559-1.739,3.763L275.272,319.37z
		 M282.715,323.099c-1.306-0.544-2.594-1.1-3.821-1.695l6.545-1.468C284.591,320.996,283.663,322.05,282.715,323.099z
		 M287.435,329.553l-6.229,1.397c0.812-1.013,1.69-2.008,2.595-3.013C285.039,328.461,286.261,328.986,287.435,329.553z
		 M291.092,331.578c1.344,0.864,2.558,1.868,3.592,3.036l-17.875,4.01c0.434-1.498,1.107-2.925,1.945-4.278L291.092,331.578z"/>
	<g opacity="0.4">
		<path fill="#828282" d="M672.68,322.831c-0.579,0.498-0.729,1.013-0.735,1.535c-0.009,0.733,0.07,2.957,0.028,3.337
			c-0.051,0.471-0.276,0.868-0.681,1.606c-1.12,2.048-17.379,21.922-17.979,22.871c-0.419,0.662-2.057-0.419-3.451-1.336
			c-0.605-0.398-1.318-0.817-1.688-0.203c-0.234,0.39,0.323,0.938,1.299,1.818c1.777,1.604,2.135,1.497,1.855,2.227
			c-0.28,0.73-2.354,3.484-4.601,6.484c-0.843,1.127-1.761,2.519-2.222,4.032c-0.384,1.26-0.354,2.683,0.195,3.966
			c0.485,1.138,1.459,2.423,3.196,3.191c0.965,0.426,2.118,0.406,3.128,0.226c1.863-0.334,3.827-1.72,5.229-3.341
			c2.227-2.571,3.277-6.429,1.882-9.088c-0.957-1.823-2.157-2.384-3.085-2.993c-1.74-1.143-2.542-1.333,0.192-5.097
			c4.19-5.768,22.554-28.312,24.138-29.853c0.083-0.081,0.28-0.274,0.362-0.544s0.02-0.855-0.015-1.126
			c-0.134-1.083,0.147-1.644,0.456-1.954c0.26-0.262,3.195-3.239,6.308-6.386l0.184-0.021l0.017-0.145l0.143-0.017l0.016-0.144
			l0.144-0.017l0.017-0.143l0.145-0.016l0.013-0.125l0.125-0.015l0.016-0.144l0.145-0.017l0.015-0.144l0.145-0.017l0.016-0.144
			l0.144-0.016l0.017-0.153l0.153-0.018l0.016-0.144l0.145-0.016l0.016-0.145l0.144-0.017l0.016-0.144l0.144-0.016l0.015-0.126
			l0.124-0.014l0.016-0.145l0.145-0.016l0.016-0.144l0.144-0.016l0.016-0.145l0.145-0.017l0.014-0.134l0.135-0.015l0.017-0.144
			l0.143-0.017l0.016-0.145l0.145-0.016l0.016-0.144l0.145-0.016l0.013-0.126l0.125-0.014l0.016-0.145l0.145-0.016l0.016-0.144
			l0.144-0.017l0.016-0.144l0.144-0.016l0.018-0.161l0.132-0.015l0.016-0.144l0.145-0.017l0.015-0.145l0.144-0.016l0.017-0.144
			l0.144-0.016l0.014-0.125l0.125-0.015l0.016-0.144l0.145-0.017l0.016-0.144l0.144-0.017l0.015-0.144l0.146-0.016l0.017-0.153
			l0.152-0.018l0.016-0.144l0.145-0.016l0.016-0.145l0.144-0.016l0.016-0.144l0.144-0.017l0.014-0.125l0.125-0.015l0.016-0.144
			l0.145-0.017l0.015-0.143l0.146-0.016l0.016-0.145l0.144-0.017l0.014-0.135l0.135-0.015l0.016-0.144l0.145-0.017l0.015-0.144
			l0.145-0.017l0.016-0.144l0.144-0.016l0.014-0.125l0.126-0.015l0.015-0.144l0.145-0.017l0.016-0.143l0.144-0.017l0.016-0.144
			l0.145-0.017l0.017-0.154c0.027-0.025,0.05-0.047,0.065-0.06c-0.629-0.509-2.308,0.968-5.522,3.919
			C685.478,311.347,675.597,320.326,672.68,322.831z M649.01,360.59c1.131-1.018,2.605-1.821,3.981-2.002
			c1.98-0.262,3.568,0.716,4.229,3.054c0.594,2.105-0.476,5.421-2.478,7.356c-1.14,1.102-2.465,1.961-3.746,2.266
			c-1.484,0.353-2.883,0.061-3.672-0.657c-1.089-0.991-1.569-1.951-1.694-2.942c-0.144-1.144,0.129-2.501,0.797-3.651
			C646.734,363.48,647.769,361.706,649.01,360.59z"/>
		<path fill="#828282" d="M674.724,326.821c0.533-0.07,0.875-0.318,1.288-0.675c2.057-2.479,2.967-3.541,3.369-3.932
			c0.083-0.081,0.28-0.274,0.362-0.544s0.02-0.855-0.015-1.126c-0.101-0.813,0.033-1.333,0.236-1.672
			c-0.59,0.143-1.179,0.123-1.825,0.052c-0.274-0.03-0.68-0.134-1.024-0.01c-1.952,1.752-3.486,3.102-4.436,3.916
			c-0.579,0.498-0.729,1.013-0.735,1.535c-0.006,0.484,0.036,1.503,0.047,2.327C672.738,326.719,673.913,326.893,674.724,326.821z"
			/>
		<path fill="#828282" d="M690.855,310.736c3.086-3.086,4.633-4.699,4.151-5.35c-0.014,0.015-0.035,0.036-0.062,0.062l-0.154,0.01
			l-0.022,0.144l-0.144,0.01l-0.023,0.143l-0.144,0.01l-0.022,0.144l-0.145,0.009l-0.02,0.125l-0.126,0.008l-0.021,0.144
			l-0.145,0.009l-0.021,0.144l-0.146,0.01l-0.022,0.143l-0.144,0.01l-0.021,0.134l-0.135,0.009l-0.023,0.144l-0.144,0.009
			l-0.023,0.144l-0.144,0.01l-0.022,0.144l-0.145,0.008l-0.02,0.125l-0.126,0.009l-0.021,0.143l-0.144,0.01l-0.023,0.143
			l-0.145,0.01l-0.021,0.144l-0.145,0.009l-0.023,0.152l-0.153,0.01l-0.022,0.144l-0.145,0.01l-0.022,0.143l-0.144,0.009
			l-0.023,0.144l-0.145,0.01l-0.02,0.124l-0.125,0.009l-0.022,0.143l-0.144,0.011l-0.022,0.143l-0.145,0.009l-0.023,0.144
			l-0.144,0.01l-0.021,0.13l-0.161,0.011l-0.021,0.143l-0.145,0.011l-0.022,0.143l-0.145,0.01l-0.022,0.144l-0.145,0.009
			l-0.019,0.124l-0.127,0.009l-0.021,0.143l-0.145,0.01l-0.022,0.144l-0.145,0.01l-0.022,0.143l-0.144,0.009l-0.021,0.135
			l-0.136,0.008l-0.022,0.144l-0.145,0.01l-0.022,0.144l-0.144,0.009l-0.022,0.144l-0.144,0.009l-0.02,0.124l-0.127,0.009
			l-0.021,0.144l-0.144,0.009l-0.023,0.144l-0.145,0.01l-0.022,0.143l-0.144,0.01l-0.024,0.152l-0.153,0.01l-0.022,0.144
			l-0.144,0.009l-0.022,0.144l-0.145,0.009l-0.022,0.144l-0.145,0.01l-0.02,0.124l-0.126,0.008l-0.021,0.144l-0.144,0.01
			l-0.022,0.143l-0.145,0.01l-0.022,0.143l-0.144,0.01l-0.029,0.183c-3.277,2.976-6.377,5.781-6.649,6.029
			c-0.323,0.295-0.896,0.552-1.972,0.372c-0.27-0.046-0.853-0.133-1.125-0.062s-0.475,0.259-0.559,0.339
			c-1.606,1.517-24.916,18.898-30.857,22.84c-3.876,2.571-4.032,1.763-5.1-0.025c-0.568-0.952-1.078-2.176-2.858-3.21
			c-2.598-1.508-6.496-0.623-9.16,1.491c-1.68,1.333-3.147,3.235-3.561,5.082c-0.225,1.003-0.293,2.153,0.091,3.135
			c0.693,1.769,1.937,2.796,3.053,3.331c1.258,0.603,2.679,0.693,3.954,0.364c1.531-0.396,2.961-1.253,4.122-2.048
			c3.095-2.117,5.935-4.07,6.675-4.318c0.741-0.249,0.619,0.104,2.146,1.947c0.838,1.013,1.362,1.594,1.761,1.376
			c0.63-0.343,0.241-1.073-0.131-1.695c-0.856-1.434-1.865-3.115-1.187-3.505c0.974-0.561,21.523-15.955,23.618-16.987
			c0.754-0.372,1.161-0.58,1.634-0.611c0.382-0.025,2.6,0.149,3.332,0.172c0.522,0.016,1.044-0.112,1.565-0.669
			C678.466,323.22,687.859,313.732,690.855,310.736z M633.573,350.498c-1.178,0.617-2.545,0.831-3.682,0.639
			c-0.986-0.167-1.924-0.688-2.867-1.817c-0.684-0.819-0.916-2.229-0.5-3.697c0.359-1.267,1.273-2.554,2.424-3.646
			c2.019-1.917,5.378-2.844,7.455-2.16c2.308,0.759,3.217,2.387,2.871,4.354c-0.24,1.367-1.105,2.806-2.17,3.893
			C635.936,349.255,634.118,350.213,633.573,350.498z"/>
		<g>
			<path fill="#828282" d="M658.289,361.28c-0.058,0.031-0.359-0.866-1.079-1.787c-1.129-1.5-3.253-2.039-4.045-3.067
				c-0.769-1.057-0.139-2.327,0.448-3.266c0.646-1.012,1.416-1.978,2.189-3.004c1.561-2.038,3.253-4.189,4.956-6.332
				c6.822-8.562,13.826-16.979,13.946-16.888c0.145,0.111-6.702,8.641-13.509,17.202c-1.698,2.143-3.396,4.288-4.97,6.31
				c-0.776,1.015-1.564,1.984-2.198,2.946c-0.609,0.935-1.067,2.007-0.51,2.778c0.91,1.146,2.444,1.365,3.772,3.009
				C658.222,360.404,658.316,361.274,658.289,361.28z"/>
		</g>
		<g>
			<path fill="#828282" d="M647.872,371.376c0.034,0.068-1.586-0.381-2.575-2.448c-0.976-2.144,0.125-5.26,1.938-7.462
				c1.797-2.234,4.592-3.891,6.887-3.505c2.303,0.455,2.893,2.174,2.843,2.1c-0.081,0.146-0.81-1.41-2.888-1.713
				c-2.078-0.275-4.688,1.298-6.416,3.449c-1.736,2.112-2.782,5.036-1.98,6.96C646.483,370.677,647.974,371.277,647.872,371.376z"/>
		</g>
		<path fill="#828282" d="M648.293,350.66c0.208-0.226,0.458-0.275,0.992-0.008c0.534,0.267,2.146,1.424,3.054,1.735
			c0.609,0.209,0.88,0.067,0.984-0.05c0.143-0.159,0.359-0.542,0.477-0.393c0.03,0.04-0.19,0.504-0.526,0.726
			c-0.171,0.113-0.361,0.109-0.583,0.067c-0.66-0.125-1.327-0.56-2.146-1.06c-0.817-0.501-1.343-0.894-1.719-0.985
			C648.489,350.611,648.293,350.66,648.293,350.66z"/>
		<g>
			<path fill="#828282" d="M648.181,359.522c-0.101-0.069,1.736-2.199,3.152-4.574c0.474-0.627-0.021-1.129-0.584-1.504
				c-0.521-0.396-0.991-0.799-1.372-1.16c-0.771-0.712-1.175-1.33-1.086-1.369c-0.005,0.015,0.415,0.542,1.215,1.222
				c0.394,0.343,0.86,0.722,1.389,1.106c0.258,0.205,0.551,0.385,0.772,0.713c0.242,0.367,0.067,0.818-0.095,1.116
				C650.132,357.502,648.234,359.565,648.181,359.522z"/>
		</g>
		<g>
			<path fill="#828282" d="M658.468,362.423c0.095-0.018,0.236,1.216-0.295,2.947c-0.499,1.726-1.819,3.866-3.734,5.34
				c-1.815,1.594-4.479,2.235-6.231,1.554c-1.763-0.618-2.437-1.76-2.384-1.766c0.073-0.095,0.835,0.908,2.491,1.392
				c1.646,0.536,4.035-0.073,5.778-1.593c1.832-1.419,3.112-3.418,3.679-5.05C658.366,363.611,658.371,362.422,658.468,362.423z"/>
		</g>
		<g>
			<path fill="#828282" d="M683.477,313.428c-2.091,1.915-4.172,3.823-5.873,5.406c0.206-0.004,0.225,0.021,0.355,0
				c1.677-1.521,3.717-3.388,5.711-5.219c4.949-4.485,9.678-9.215,9.92-8.889C693.253,304.263,688.416,308.96,683.477,313.428z"/>
		</g>
		<path fill="#828282" d="M675.759,325.479c1.052-0.94,5.996-6.259,6.616-6.88c0.62-0.62,2.895-2.856,2.556-2.33
			c-0.338,0.526-8.308,8.834-8.814,9.342c-0.508,0.507-0.775,1.045-2.567,0.931c-1.691-0.108-2.509-0.292-2.94-0.236
			c-0.432,0.057,0.176-0.174,0.631-0.132C673.029,326.34,674.705,326.419,675.759,325.479z"/>
		<path fill="#828282" d="M675.577,326.128c-0.118,0.122-0.537,0.234-1.014,0.264c-1.248,0.078-3.097-0.172-3.424-0.189
			c-0.275-0.015-0.522,0.018-0.739,0.086c-0.799,0.254-2.203,0.92-3.787,2.064c-2.458,1.706-5.678,4.055-8.892,6.41
			c-3.213,2.357-6.412,4.731-8.805,6.52c-0.798,0.589-1.639,1.184-2.262,1.641c-0.623,0.458-1.058,0.737-1.338,1.02
			c-0.274,0.275-0.173,0.596-0.099,0.563c0.03-0.014-0.048-0.227,0.381-0.599c0.241-0.21,0.707-0.535,1.091-0.818
			c0.62-0.46,1.457-1.014,2.351-1.656c2.423-1.754,5.64-4.108,8.855-6.464c3.217-2.354,6.425-4.718,8.853-6.455
			c1.573-1.169,2.92-1.774,3.684-2.065c0.206-0.078,0.469-0.08,0.836-0.064c0.146,0.006,0.427,0.027,0.645,0.044
			c0.416,0.061,1.029,0.098,1.636,0.114c0.39,0.01,0.772,0.032,1.107-0.011C675.107,326.475,675.442,326.313,675.577,326.128z"/>
		<g>
			<g>
				<path fill="#828282" d="M675.742,325.863c-0.073-0.056,4.625-5.132,9.508-10.063c4.986-4.854,9.971-9.693,9.609-9.983
					c0.505,0.378-4.46,5.221-9.353,10.098C680.636,320.843,675.821,325.927,675.742,325.863z"/>
			</g>
		</g>
		<path fill="#828282" d="M625.614,348.309c0.188-0.021,0.113-0.951,0.194-1.489c0.133-0.871,0.242-1.181,0.539-1.956
			c0.411-1.072,1.196-2.52,3.634-4.198c2.226-1.531,4.636-2.032,6.613-1.374c1.49,0.496,2.689,1.687,3.666,3.64
			c0.569,1.14,1.273,1.696,2.151,1.702c1.395,0.009,3.429-1.113,7.022-3.87c0.762-0.584,2.013-1.479,3.597-2.612
			c1.756-1.256,3.941-2.819,6.144-4.454c8.021-5.953,17.021-12.954,17.6-13.446c0.618-0.523,1.121-0.483,1.758-0.433
			c0.669,0.054,1.428,0.115,2.316-0.533c1.047-0.766,7.561-6.803,11.106-10.105c1.263-1.177,3.03-2.938,2.904-3.362
			c-0.077-0.26-2.025,1.548-3.308,2.742c-3.51,3.27-10.118,9.396-11.133,10.138c-0.67,0.489-1.206,0.446-1.828,0.396
			c-0.675-0.055-1.44-0.116-2.287,0.604c-0.558,0.473-9.729,7.603-17.562,13.416c-2.197,1.631-4.38,3.191-6.134,4.446
			c-1.589,1.137-2.845,2.035-3.616,2.627c-3.407,2.614-5.373,3.728-6.574,3.72c-0.586-0.004-1.063-0.417-1.506-1.301
			c-1.066-2.134-2.403-3.443-4.086-4.004c-2.197-0.731-4.842-0.197-7.256,1.465c-2.604,1.793-3.452,3.366-3.901,4.537
			c-0.386,1.008-0.488,1.912-0.495,2.6C625.167,347.649,625.303,348.344,625.614,348.309z"/>
		<g>
			<path fill="#828282" d="M625.446,345.76c-0.05,0,0.177-1.163,1.129-2.611c0.92-1.458,2.681-3.073,4.804-3.986
				c2.073-1.002,4.6-1.097,6.149-0.235c1.567,0.796,2.192,1.849,2.176,1.84c-0.046,0.06-0.721-0.936-2.253-1.662
				c-1.516-0.789-3.92-0.678-5.953,0.3C627.083,341.138,625.354,345.826,625.446,345.76z"/>
		</g>
		<g>
			<path fill="#828282" d="M644.008,345.758c-0.171-0.138-0.337-0.21-0.562-0.174c-2.385,0.777-4.781,2.976-7.546,4.604
				c-1.333,0.872-2.741,1.68-4.2,1.948c-1.452,0.299-2.869-0.086-3.822-0.789c-1.945-1.429-2.362-3.148-2.409-3.087
				c-0.028-0.038,0.319,1.736,2.304,3.25c0.973,0.748,2.467,1.172,3.985,0.868c1.521-0.271,2.96-1.099,4.302-1.973
				c2.745-1.62,5.227-3.87,7.43-4.616c0.119-0.029,0.26,0.024,0.409,0.13C644.002,345.992,644.257,345.977,644.008,345.758z"/>
		</g>
		<g>
			<path fill="#828282" d="M678.441,319.252c0.534,0.069,0.976,0.027,0.974,0.028c0.001,0.025-0.426,0.085-0.981,0.051
				c-0.413-0.026-0.847-0.083-1.075-0.004c-0.319,0.109-2.212,1.793-3.899,3.097c-3.334,2.756-8.019,6.113-12.673,9.511
				c-4.688,3.351-9.357,6.724-12.901,9.203c-1.791,1.209-3.227,2.312-4.423,2.794c-1.292,0.417-1.946-0.325-1.919-0.255
				c-0.003-0.101,0.658,0.582,1.877,0.151c1.134-0.483,2.572-1.619,4.34-2.841c3.51-2.511,8.164-5.904,12.847-9.255
				c4.648-3.396,9.345-6.74,12.701-9.456c1.729-1.301,3.709-3.042,4.069-3.118C677.629,319.105,678.024,319.199,678.441,319.252z"/>
		</g>
		<path fill="#828282" d="M645.675,345.748c-0.019-0.034-0.074-0.04-0.123-0.013l-1.178,0.668c-0.049,0.027-0.072,0.078-0.053,0.112
			c0.02,0.035,0.075,0.041,0.123,0.014l1.179-0.668C645.672,345.834,645.695,345.783,645.675,345.748z M646.055,346.469
			c-0.019-0.035-0.074-0.041-0.123-0.013l-1.08,0.621c-0.049,0.028-0.072,0.078-0.053,0.113c0.021,0.034,0.075,0.04,0.124,0.013
			l1.08-0.622C646.052,346.554,646.075,346.503,646.055,346.469z M646.378,347.077c-0.02-0.034-0.075-0.04-0.123-0.013l-0.967,0.563
			c-0.049,0.027-0.072,0.078-0.053,0.112c0.02,0.035,0.075,0.04,0.123,0.013l0.967-0.562
			C646.375,347.163,646.397,347.112,646.378,347.077z M646.711,347.675c-0.021-0.035-0.075-0.04-0.124-0.013l-0.812,0.487
			c-0.049,0.028-0.072,0.078-0.052,0.112c0.019,0.035,0.074,0.041,0.123,0.014l0.812-0.487
			C646.707,347.761,646.73,347.71,646.711,347.675z M647.039,348.319c-0.02-0.034-0.075-0.04-0.124-0.013l-0.61,0.374
			c-0.049,0.027-0.073,0.078-0.053,0.112c0.02,0.035,0.074,0.041,0.124,0.013l0.61-0.373
			C647.036,348.405,647.059,348.354,647.039,348.319z"/>
		<path fill="#828282" d="M645.447,345.394c-0.016-0.028-0.069-0.029-0.117-0.001l-1.179,0.668
			c-0.049,0.026-0.074,0.072-0.059,0.101s0.068,0.029,0.117,0.002l1.178-0.668C645.438,345.468,645.464,345.423,645.447,345.394z
			 M645.896,346.104c-0.016-0.028-0.068-0.028-0.116-0.001l-1.081,0.62c-0.049,0.027-0.075,0.073-0.06,0.102
			c0.017,0.028,0.069,0.029,0.118,0.002l1.08-0.621C645.887,346.178,645.913,346.132,645.896,346.104z M646.206,346.793
			c-0.017-0.028-0.069-0.029-0.118-0.002l-0.967,0.562c-0.05,0.027-0.075,0.072-0.06,0.101c0.017,0.028,0.068,0.029,0.117,0.002
			l0.968-0.562C646.195,346.866,646.222,346.821,646.206,346.793z M646.562,347.402c-0.017-0.028-0.069-0.03-0.117-0.002
			l-0.814,0.484c-0.049,0.027-0.075,0.072-0.059,0.101s0.068,0.029,0.117,0.002l0.813-0.484
			C646.551,347.476,646.577,347.431,646.562,347.402z M646.833,348.042c-0.016-0.028-0.068-0.029-0.117-0.002l-0.613,0.37
			c-0.049,0.027-0.075,0.073-0.059,0.101c0.016,0.029,0.068,0.03,0.117,0.002l0.613-0.369
			C646.823,348.115,646.849,348.07,646.833,348.042z"/>
		<g>
			<path fill="#828282" d="M626.419,348.84c0.078-0.063,0.623,1.089,2.191,1.911c1.533,0.998,4.016,0.645,5.99-0.697
				c2.084-1.189,3.835-2.827,4.447-4.523c0.675-1.653,0.412-2.877,0.507-2.887c0.062-0.048,0.48,1.234-0.142,3.017
				c-0.545,1.823-2.426,3.653-4.524,4.847c-1.044,0.627-2.189,1.165-3.373,1.304c-1.197,0.178-2.295-0.252-3.1-0.69
				C626.771,350.153,626.321,348.849,626.419,348.84z"/>
		</g>
	</g>
	<path opacity="0.4" fill-rule="evenodd" clip-rule="evenodd" fill="#3A3A3A" d="M740.779,473.846
		c-5.487-5.121-6.332-9.438-10.022-16.882c-3.687-7.438-9.258-11.551-17.812-10.146c-8.558,1.403-10.561,8.942-17.934,14.591
		c-7.374,5.648-5.827,5.728-1.815,7.187c4.015,1.456,9.394,5.131,15.099,7.047c0.119,0.04,0.235,0.076,0.352,0.115
		c-0.781,0.832-1.697,1.595-2.773,2.243c-0.026,0.012-0.053,0.014-0.076,0.032c-0.153,0.107-0.217,0.335-0.205,0.616l-0.276,0.263
		l-0.064,0.061l-0.049,0.047l0.002,0.002l0.011,0.012l0.012,0.013l0.012,0.013l0.014,0.014l0.011,0.011l0.011,0.013l0.014,0.014
		l0.011,0.012l0.013,0.013l0.011,0.012l0.013,0.013l0.01,0.012l0.014,0.013l0.011,0.013l0.011,0.011l0.014,0.015l0.011,0.012
		l0.013,0.013l0.01,0.011l0.013,0.013l0.013,0.014l0.012,0.012l0.013,0.014l0.011,0.013l0.011,0.011l0.013,0.014l0.012,0.012
		l0.011,0.012l0.012,0.012l0.013,0.014l0.012,0.012l0.013,0.014l0.011,0.012l0.011,0.012l0.012,0.012l0.013,0.014l0.011,0.012
		l0.013,0.014l0.011,0.011l0.015,0.015l0.01,0.011l0.011,0.012l0.013,0.014l0.012,0.013l0.012,0.012l0.011,0.012l0.013,0.014
		l0.012,0.012l0.013,0.014l0.013,0.014l0.01,0.01l0.012,0.013l0.013,0.013l0.012,0.013l0.011,0.011l0.012,0.014l0.013,0.013
		l0.012,0.013l0.013,0.013l0.011,0.012l0.012,0.012l0.011,0.012l0.013,0.014l0.013,0.014l0.01,0.011l0.013,0.013
		c0.009,0.017,0.018,0.039,0.028,0.054c0.271,0.452,0.606,0.78,0.908,0.935l0.074,0.078l0.032-0.03
		c0.17,0.067,0.326,0.067,0.448-0.011l0,0c0.001-0.001,0.003,0.001,0.003,0.001c0.006-0.005,0.01-0.007,0.017-0.009
		c0.002-0.002,0.003-0.007,0.005-0.009c1.985-1.179,3.7-2.624,5.067-4.194c1.327,0.1,1.858-0.211,2.36-0.372
		c-0.412,0.698-0.674,1.17-0.706,1.306c-0.185,0.8,1.627,2.542,2.161,2.114c0.109-0.089,0.427-0.644,0.864-1.482
		c0.677,0.571,1.578,1.221,2.768,1.899c3.67,2.096,18.243,1.492,21.531,0.743C744.829,480.116,746.264,478.966,740.779,473.846z"/>
	<g opacity="0.4">
		<path fill="#3A3A3A" d="M308.092,369.7h-3.387v-3.293c0-0.857-0.692-1.552-1.549-1.552h-1.766c0-2.093-1.696-3.796-3.796-3.796
			c-2.1,0-3.798,1.703-3.798,3.796h-1.766c-0.855,0-1.554,0.694-1.554,1.552v3.293h-3.381v3.773h20.997V369.7z M297.594,365.966
			c-0.742,0-1.348-0.603-1.348-1.347c0-0.742,0.605-1.347,1.348-1.347s1.346,0.604,1.346,1.347
			C298.94,365.363,298.336,365.966,297.594,365.966z"/>
		<path fill="#3A3A3A" d="M311.934,407.36h-28.261c-0.555,0-1.006,0.444-1.006,0.993c0,0.55,0.452,0.99,1.006,0.99h28.261
			c0.555,0,1.005-0.44,1.005-0.99C312.938,407.805,312.489,407.36,311.934,407.36z"/>
		<path fill="#93CEE5" d="M311.934,403.222h-28.261c-0.555,0-1.006,0.448-1.006,0.994c0,0.551,0.452,0.993,1.006,0.993h28.261
			c0.555,0,1.005-0.442,1.005-0.993C312.938,403.67,312.489,403.222,311.934,403.222z"/>
		<path fill="#3A3A3A" d="M311.934,399.089h-28.261c-0.555,0-1.006,0.444-1.006,0.991c0,0.548,0.452,0.995,1.006,0.995h28.261
			c0.555,0,1.005-0.447,1.005-0.995C312.938,399.533,312.489,399.089,311.934,399.089z"/>
		<path fill="#93CEE5" d="M311.934,415.632h-28.261c-0.555,0-1.006,0.443-1.006,0.993c0,0.545,0.452,0.991,1.006,0.991h28.261
			c0.555,0,1.005-0.446,1.005-0.991C312.938,416.075,312.489,415.632,311.934,415.632z"/>
		<path fill="#93CEE5" d="M311.934,394.956h-28.261c-0.555,0-1.006,0.441-1.006,0.988c0,0.551,0.452,0.992,1.006,0.992h28.261
			c0.555,0,1.005-0.441,1.005-0.992C312.938,395.397,312.489,394.956,311.934,394.956z"/>
		<path fill="#3A3A3A" d="M311.934,411.492h-28.261c-0.555,0-1.006,0.45-1.006,0.995c0,0.55,0.452,0.995,1.006,0.995h28.261
			c0.555,0,1.005-0.445,1.005-0.995C312.938,411.942,312.489,411.492,311.934,411.492z"/>
		<path fill="#93CEE5" d="M311.945,379.07h-16.54c-0.548,0-0.995,0.446-0.995,0.995c0,0.548,0.446,0.993,0.995,0.993h16.54
			c0.549,0,0.994-0.445,0.994-0.993C312.938,379.517,312.494,379.07,311.945,379.07z"/>
		<path fill="#3A3A3A" d="M311.945,383.042h-16.54c-0.548,0-0.995,0.446-0.995,0.992c0,0.549,0.446,0.994,0.995,0.994h16.54
			c0.549,0,0.994-0.445,0.994-0.994C312.938,383.488,312.494,383.042,311.945,383.042z"/>
		<rect x="283.243" y="377.502" fill="#3A3A3A" width="9.432" height="13.066"/>
		<path fill="#3A3A3A" d="M314.951,369.7h-5.375v4.27v0.995h5.183v46.952h-34.335v-46.952h5.187v-0.995v-4.27h-5.379
			c-2.134,0-3.864,1.729-3.864,3.866v49.209c0,2.132,1.73,3.865,3.864,3.865h34.719c2.139,0,3.864-1.733,3.864-3.865v-49.209
			C318.815,371.43,317.09,369.7,314.951,369.7z"/>
		<path fill="#93CEE5" d="M311.945,387.013h-16.54c-0.548,0-0.995,0.444-0.995,0.99c0,0.549,0.446,0.997,0.995,0.997h16.54
			c0.549,0,0.994-0.448,0.994-0.997C312.938,387.457,312.494,387.013,311.945,387.013z"/>
		<path fill="#3A3A3A" d="M311.945,390.981h-16.54c-0.548,0-0.995,0.449-0.995,0.994c0,0.549,0.446,0.994,0.995,0.994h16.54
			c0.549,0,0.994-0.445,0.994-0.994C312.938,391.431,312.494,390.981,311.945,390.981z"/>
	</g>
	<g opacity="0.4">
		<path fill="#3A3A3A" d="M459.722,289.854l-0.025-1.998c-0.127-0.051-0.257-0.105-0.393-0.156
			c-1.358-0.566-2.864-1.193-4.336-2.158l-0.06,4.338c-3.939,0.547-7.771,2.211-8.646,4.236h8.579h4.923h8.665
			C467.277,292.277,463.601,290.402,459.722,289.854z"/>
		<rect x="427.466" y="237.609" fill="#93CEE5" width="59.758" height="1.928"/>
		<path fill="#3A3A3A" d="M506.175,238.852c-0.529-7.211-3.822-15.025-10.32-19.09c-7.859-4.964-15.809-3.377-20.7-3.539
			c-1.538-0.199-3.594,0.287-6.035,1.746c-4.241,2.55-9.449,8.505-7.229,9.188c-3.312,0.751-5.081,5.462-8.858,6.141
			c2.515-0.052,3.733-1.229,3.733-1.229c-0.52,1.395-2.169,1.799-2.816,4.07c0.647-1.398,2.912-1.99,3.946-4.045
			c0.932-1.865,2.417-3.948,4.161-4.805c0.399,2.094,5.43,0.06,9.921-1.3c2.182-0.66,3.8-2.011,4.818-3.466c0,0,0.006,0,0.009,0
			c3.362-1.939,9.982-2.161,16.072,1.713c9.387,6.021,11.266,23.453,3.787,32.626c-8.508,9.604-22.409,11.24-33.82,12.559
			c-0.72,0.127-1.44,0.25-2.16,0.385v3.041c0.828-0.133,1.684-0.229,2.562-0.262c11.085-0.848,26.307-1.422,36.986-12.641
			C505.331,254.236,507.03,245.996,506.175,238.852z"/>
		<path fill="#93CEE5" d="M462.624,286.58c-0.87-0.496-1.9-1.012-2.953-1.572l0,0c-0.412-0.227-0.828-0.457-1.234-0.695
			c-0.006-0.004-0.009-0.004-0.009-0.004c-0.412-0.25-0.818-0.5-1.208-0.762c-0.006-0.01-0.009-0.01-0.016-0.01
			c-0.393-0.27-0.78-0.557-1.142-0.852l0,0c-0.361-0.303-0.714-0.623-1.028-0.965l0,0c-0.631-0.668-1.154-1.414-1.513-2.268
			c-0.416-1.492-0.181-2.643,0.628-3.617v-3.68c-2.687,1.834-3.809,5.213-2.797,8.029c1.31,2.438,3.035,3.902,4.815,4.947
			l0.006,0.002c0.78,0.457,1.564,0.826,2.334,1.168c0.025,0.01,0.048,0.018,0.08,0.027c1.25,0.543,2.433,0.984,3.438,1.518
			c6.384,2.051,8.506,5.344,8.592,6.105c0.038-0.381,0.016-1.436-1.019-2.691C468.317,289.674,465.767,288.189,462.624,286.58z"/>
		<path fill="#3A3A3A" d="M455.053,280.201c1.068,1.545,2.813,2.688,4.605,3.678l-0.124-11.561l-0.022-2.283l0,0l-0.019-1.869
			c15.5-1.006,27.73-12.742,27.73-27.08h-59.758c0,14.351,12.255,26.099,27.774,27.08L455.053,280.201z M447.593,263.303
			c-0.295,0.729-0.945,0.605-1.174,0.5c-7.726-3.049-14.041-10.105-15.354-18.498c-0.06-0.24-0.104-0.918,0.723-1.074
			c0.822-0.152,1.148,0.523,1.199,0.748c1.196,7.672,6.981,14.172,14.177,17.021C447.368,262.096,447.888,262.576,447.593,263.303z"
			/>
	</g>
	<g opacity="0.4">
		<g>
			<path fill="#3A3A3A" d="M220.867,428.962c5.838,7.964,17.067,9.694,25.033,3.856c3.857-2.828,6.383-6.987,7.111-11.714
				l-2.258-0.348c-0.637,4.121-2.84,7.752-6.204,10.219c-6.949,5.093-16.745,3.583-21.838-3.365
				c-5.092-6.947-3.583-16.744,3.365-21.838c6.948-5.093,16.745-3.583,21.838,3.364c1.649,2.25,2.667,4.899,2.945,7.661l2.274-0.228
				c-0.318-3.168-1.485-6.205-3.376-8.785c-5.838-7.965-17.068-9.693-25.033-3.855C216.759,409.769,215.028,420.997,220.867,428.962
				z"/>
		</g>
		
			<rect x="252.27" y="433.479" transform="matrix(0.8065 -0.5912 0.5912 0.8065 -214.3574 237.5627)" fill="#3A3A3A" width="6.97" height="25.57"/>
		
			<rect x="245.766" y="431.045" transform="matrix(0.8065 -0.5913 0.5913 0.8065 -209.5124 230.8174)" fill="#7C7C7C" width="4.119" height="8.803"/>
	</g>
	<g>
		<g>
			<circle fill="#F2F2F2" cx="708.952" cy="216.258" r="30.312"/>
			<g>
				<rect x="691.724" y="215.404" fill="#2B2B2B" width="1.362" height="14.345"/>
				<rect x="725.206" y="215.404" fill="#2B2B2B" width="1.362" height="14.345"/>
				<g>
					<path fill="#E8F9FF" d="M705.984,202.542c-0.764,0-1.255,0.361-1.255,1.125c0,0.702,0.42,1.277,1.081,1.366v7.241v13.453
						c0,1.864,1.511,3.375,3.375,3.375v-26.56H705.984z"/>
					<path fill="#C1D8E0" d="M712.386,202.542h-3.2v26.56c1.862,0,3.373-1.511,3.373-3.375v-13.453v-7.241
						c0.662-0.089,1.081-0.664,1.081-1.366C713.64,202.902,713.148,202.542,712.386,202.542z"/>
				</g>
				<g>
					<path fill="#C1D8E0" d="M722.827,202.542h-3.2v26.56c1.863,0,3.374-1.511,3.374-3.375v-13.453v-7.241
						c0.662-0.088,1.081-0.664,1.081-1.366C724.082,202.902,723.592,202.542,722.827,202.542z"/>
					<path fill="#E8F9FF" d="M716.427,202.542c-0.765,0-1.256,0.361-1.256,1.125c0,0.702,0.419,1.277,1.082,1.366v7.242v13.453
						c0,1.864,1.511,3.375,3.374,3.375v-26.56H716.427z"/>
				</g>
				<g>
					<path fill="#E8F9FF" d="M698.743,228.582c-1.574,0-2.854-1.28-2.854-2.855v-16.271h2.854v-6.914h-3.201
						c-0.763,0-1.254,0.361-1.254,1.125c0,0.702,0.419,1.277,1.081,1.366v7.241v13.453c0,1.864,1.511,3.375,3.374,3.375l0,0V228.582
						L698.743,228.582z"/>
					<path fill="#C1D8E0" d="M701.943,202.542h-3.2v6.914h2.855v16.271c0,1.575-1.281,2.855-2.855,2.855v0.52
						c1.863,0,3.374-1.511,3.374-3.375v-13.453v-7.241c0.662-0.088,1.08-0.664,1.08-1.366
						C703.197,202.902,702.707,202.542,701.943,202.542z"/>
					<path fill="#FF3B5E" d="M698.743,209.456h-2.854v16.271c0,1.575,1.28,2.855,2.854,2.855s2.855-1.28,2.855-2.855v-16.271
						H698.743z"/>
					<path fill="#D92E4D" d="M701.599,225.727v-16.271h-2.855v19.126C700.317,228.582,701.599,227.301,701.599,225.727z"/>
					<path fill="#FF3B5E" d="M695.889,225.727c0,1.575,1.28,2.855,2.854,2.855l0,0v-19.126h-2.854V225.727z"/>
				</g>
				<path fill="#474747" d="M691.022,215.01v0.26v0.193v0.262v0.259v0.259v0.13v0.26c0,0.143,0.125,0.258,0.278,0.258h2.153
					c0.153,0,0.277-0.115,0.277-0.258v-0.26v-0.13h30.773v0.13v0.26c0,0.143,0.122,0.258,0.275,0.258h2.153
					c0.154,0,0.278-0.115,0.278-0.258v-0.26v-0.13v-0.259v-0.259v-0.262v-0.193v-0.26H691.022z"/>
				<g>
					<path fill="#474747" d="M691.022,229.025v0.455v0.519v0.391c0,0.142,0.125,0.258,0.278,0.258h2.153
						c0.153,0,0.277-0.116,0.277-0.258v-0.391h30.773v0.391c0,0.142,0.122,0.258,0.275,0.258h2.153c0.154,0,0.278-0.116,0.278-0.258
						v-0.391v-0.519v-0.455H691.022z"/>
				</g>
			</g>
		</g>
		<g>
			<circle fill="#F2F2F2" cx="468.452" cy="246.258" r="30.312"/>
			<g>
				<path fill="#D92E4D" d="M468.871,247.462c11.298,0,17.544,1.717,17.544,2.905h0.41c0-2.229-9.251-3.435-17.955-3.435
					c-8.704,0-17.955,1.206-17.955,3.435h0.409C451.325,249.179,457.573,247.462,468.871,247.462z"/>
				<path fill="#D92E4D" d="M468.871,253.797c8.704,0,17.955-1.201,17.955-3.43h-0.41c0,1.187-6.247,2.903-17.544,2.903
					c-11.297,0-17.546-1.716-17.546-2.903h-0.409C450.916,252.596,460.167,253.797,468.871,253.797z"/>
				<path fill="#D92E4D" d="M485.585,251.686c0.793-0.389,1.24-0.829,1.24-1.319c0-2.229-9.251-3.435-17.955-3.435
					c-8.704,0-17.955,1.206-17.955,3.435c0,0.49,0.448,0.93,1.239,1.319c-0.791,0.39-1.239,0.83-1.239,1.32
					c0,2.229,9.251,3.433,17.955,3.433c8.704,0,17.955-1.203,17.955-3.433C486.825,252.516,486.378,252.075,485.585,251.686z
					 M468.871,253.27c-7.417,0-12.656-0.74-15.382-1.584c2.726-0.843,7.966-1.584,15.382-1.584c7.415,0,12.657,0.741,15.382,1.584
					C481.527,252.529,476.286,253.27,468.871,253.27z"/>
				<path fill="#FF3B5E" d="M468.871,253.797c-8.704,0-17.955-1.201-17.955-3.43v7.393c0,2.229,9.251,3.431,17.955,3.431
					c8.704,0,17.955-1.202,17.955-3.431v-7.393C486.825,252.596,477.574,253.797,468.871,253.797z"/>
				<rect x="466.758" y="245.085" fill="#2B2B2B" width="4.226" height="14.258"/>
				<g>
					<path fill="#C1D8E0" d="M468.871,230.827c-5.25,0-9.506,4.256-9.506,9.507c0,5.248,4.255,9.504,9.506,9.504
						c5.249,0,9.506-4.256,9.506-9.504C478.376,235.083,474.12,230.827,468.871,230.827z M468.871,247.197
						c-3.791,0-6.864-3.074-6.864-6.864c0-3.792,3.073-6.865,6.864-6.865s6.866,3.073,6.866,6.865
						C475.736,244.124,472.662,247.197,468.871,247.197z"/>
					<path fill="#E8F9FF" d="M462.007,240.333c0-3.792,3.073-6.865,6.864-6.865v-2.642c-5.25,0-9.506,4.256-9.506,9.507
						c0,5.248,4.255,9.504,9.506,9.504v-2.64C465.08,247.197,462.007,244.124,462.007,240.333z"/>
					<path fill="#C1D8E0" d="M468.871,230.827v2.642c3.791,0,6.866,3.073,6.866,6.865c0,3.79-3.075,6.864-6.866,6.864v2.64
						c5.249,0,9.506-4.256,9.506-9.504C478.376,235.083,474.12,230.827,468.871,230.827z"/>
					<path fill="#FFFFFF" d="M462.007,240.333c0,3.79,3.073,6.864,6.864,6.864v-0.792c-3.354,0-6.072-2.72-6.072-6.072
						c0-3.354,2.718-6.074,6.072-6.074v-0.792C465.08,233.468,462.007,236.541,462.007,240.333z"/>
					<path fill="#FFFFFF" d="M474.943,240.333c0,3.353-2.719,6.072-6.073,6.072v0.792c3.791,0,6.866-3.074,6.866-6.864
						c0-3.792-3.075-6.865-6.866-6.865v0.792C472.225,234.26,474.943,236.979,474.943,240.333z"/>
					<circle fill="#C1D8E0" cx="468.871" cy="240.333" r="6.073"/>
					<path fill="#E8F9FF" d="M462.798,240.333c0,3.353,2.718,6.072,6.072,6.072V234.26
						C465.517,234.26,462.798,236.979,462.798,240.333z"/>
					<path fill="#C1D8E0" d="M474.943,240.333c0-3.354-2.719-6.074-6.073-6.074v12.146
						C472.225,246.406,474.943,243.686,474.943,240.333z"/>
					<circle fill="#FFFFFF" cx="468.871" cy="240.333" r="2.905"/>
					<path fill="#474747" d="M467.021,240.333c0,1.021,0.828,1.848,1.849,1.848v-3.697
						C467.85,238.484,467.021,239.312,467.021,240.333z"/>
					<path fill="#2B2B2B" d="M470.72,240.333c0-1.022-0.828-1.849-1.849-1.849v3.697C469.892,242.181,470.72,241.354,470.72,240.333
						z"/>
				</g>
				<circle fill="#FF3B5E" cx="468.871" cy="257.231" r="1.039"/>
			</g>
		</g>
		<g>
			<circle fill="#F2F2F2" cx="227.952" cy="216.258" r="30.311"/>
			<g>
				<g>
					<path fill="#33C5FF" d="M237.577,209.382h-1.234h-7.406h-7.406h-1.236c-5.111,0-8.331,2.031-8.331,5.298v18.532
						c0,3.266,3.219,3.941,8.331,3.941h8.642h8.64c5.113,0,8.333-0.675,8.333-3.941V214.68
						C245.91,211.413,242.689,209.382,237.577,209.382z M239.737,229.439h-10.801h-10.802v-15.43h10.802h10.801V229.439z"/>
					<path fill="#5379B8" d="M219.06,229.439v-15.43h9.877v-4.627h-7.406h-1.236c-5.111,0-8.331,2.031-8.331,5.298v18.532
						c0,3.266,3.219,3.941,8.331,3.941h8.642v-7.714H219.06z"/>
					<path fill="#3B5C94" d="M237.577,209.382h-1.234h-7.406v4.627h9.875v15.43h-9.875v7.714h8.64c5.113,0,8.333-0.675,8.333-3.941
						V214.68C245.91,211.413,242.689,209.382,237.577,209.382z"/>
					<path fill="#474747" d="M236.342,196.421h-7.406h-7.406c-1.364,0-2.471,1.105-2.471,2.47v8.021
						c0,1.364,1.107,2.469,2.471,2.469h7.406h7.406c1.364,0,2.469-1.105,2.469-2.469v-8.021
						C238.811,197.526,237.706,196.421,236.342,196.421z"/>
					<path fill="#2B2B2B" d="M236.342,209.382c1.364,0,2.469-1.105,2.469-2.469v-8.021c0-1.365-1.105-2.47-2.469-2.47h-7.406v12.961
						H236.342z"/>
					<path fill="#474747" d="M228.937,196.421h-7.406c-1.364,0-2.471,1.105-2.471,2.47v8.021c0,1.364,1.107,2.469,2.471,2.469h7.406
						V196.421z"/>
					
						<radialGradient id="SVGID_1_" cx="228.9365" cy="23.1934" r="25.1363" gradientTransform="matrix(1 0 0 0.6389 0 208.4487)" gradientUnits="userSpaceOnUse">
						<stop  offset="0" style="stop-color:#FFFFFF"/>
						<stop  offset="0.2453" style="stop-color:#FBFCFD"/>
						<stop  offset="0.5076" style="stop-color:#EEF4F6"/>
						<stop  offset="0.7767" style="stop-color:#D9E7EC"/>
						<stop  offset="1" style="stop-color:#C1D8E0"/>
					</radialGradient>
					<rect x="218.752" y="214.009" fill="url(#SVGID_1_)" width="10.185" height="15.43"/>
					<rect x="218.752" y="214.009" fill="#E8F9FF" width="10.185" height="15.43"/>
					<rect x="228.937" y="214.009" fill="#C1D8E0" width="10.183" height="15.43"/>
				</g>
				<g>
					<rect x="228.117" y="216.173" fill="#D92E4D" width="1.639" height="10.487"/>
					<rect x="223.694" y="220.596" fill="#D92E4D" width="10.484" height="1.639"/>
				</g>
			</g>
		</g>
		<g>
			
				<path fill="none" stroke="#FFFFFF" stroke-width="2" stroke-linecap="round" stroke-linejoin="round" stroke-miterlimit="10" stroke-dasharray="6" d="
				M788.286,328.209c0,0-110.031-122.75-322.463-122.75c-202.256,0-309.109,122.75-309.109,122.75"/>
			<circle fill="#F2F2F2" cx="186.104" cy="327.592" r="55.497"/>
			<circle fill="#F2F2F2" cx="356.104" cy="217.592" r="55.497"/>
			<circle fill="#F2F2F2" cx="580.104" cy="217.592" r="55.497"/>
			<circle fill="#F2F2F2" cx="775.104" cy="327.592" r="55.497"/>
			<g>
				<g>
					<path fill="#474747" d="M175.128,300.197c0-1.332,1.077-2.416,2.416-2.416h10.33v-7.248h-10.33
						c-5.334,0-9.671,4.334-9.671,9.664v2.758h7.256V300.197z"/>
					<path fill="#D92E4D" d="M220.164,303.484h-11.222v-0.529h-7.25v0.529h-13.819h-12.746v-0.529h-7.256v0.529h-11.228
						c-3.137,0-5.678,2.344-5.678,5.234v36.637c0,2.889,2.541,5.236,5.678,5.236h31.229h32.29c3.143,0,5.683-2.348,5.683-5.236
						v-36.637C225.846,305.828,223.306,303.484,220.164,303.484z"/>
					<path fill="#FF3B5E" d="M175.128,303.484v-0.529h-7.256v0.529h-11.228c-3.137,0-5.678,2.344-5.678,5.234v36.637
						c0,2.889,2.541,5.236,5.678,5.236h31.229v-47.107H175.128z"/>
					<path fill="#D92E4D" d="M220.164,303.484h-11.222v-0.529h-7.25v0.529h-13.819v47.107h32.29c3.143,0,5.683-2.348,5.683-5.236
						v-36.637C225.846,305.828,223.306,303.484,220.164,303.484z"/>
					<path fill="#2B2B2B" d="M199.274,297.781c1.339,0,2.418,1.084,2.418,2.416v2.758h7.25v-2.758c0-5.33-4.328-9.664-9.667-9.664
						h-11.401v7.248H199.274z"/>
				</g>
				<path fill="#FFFFFF" d="M204.655,327.041c0,8.979-7.269,16.248-16.249,16.248c-8.973,0-16.251-7.27-16.251-16.248
					c0-8.975,7.278-16.25,16.251-16.25C197.386,310.791,204.655,318.066,204.655,327.041z"/>
				<g>
					<rect x="186.532" y="315.021" fill="#2B2B2B" width="3.751" height="24.041"/>
					<rect x="176.391" y="325.162" fill="#2B2B2B" width="24.034" height="3.76"/>
				</g>
			</g>
			<g>
				<g>
					<path fill="#3B5C94" d="M367.068,215.242v25.542c0,6.1,4.964,11.063,11.063,11.063c6.099,0,11.062-4.963,11.062-11.063v-25.481
						C381.189,213.65,373.029,214.273,367.068,215.242z"/>
					<path fill="#FFFFFF" d="M378.132,180.977c-6.099,0-11.063,4.966-11.063,11.062v24.238c5.96-0.969,14.121-1.589,22.126,0.062
						v-24.301C389.194,185.943,384.23,180.977,378.132,180.977z"/>
					<path fill="#FF3B5E" d="M378.132,179.941c-6.099,0-11.063,4.966-11.063,11.066v24.234c5.96-0.968,14.121-1.591,22.126,0.061
						v-24.295C389.194,184.908,384.23,179.941,378.132,179.941z"/>
				</g>
				<g>
					<path fill="#3B5C94" d="M334.241,214.19l11.954-22.57c2.856-5.392,9.566-7.455,14.958-4.598
						c5.389,2.854,7.447,9.565,4.592,14.956l-11.927,22.515C345.976,222.209,339.048,217.837,334.241,214.19z"/>
					<path fill="#FFFFFF" d="M327.977,249.643c-5.393-2.854-7.455-9.561-4.6-14.952l11.348-21.417
						c4.809,3.648,11.733,8.019,19.582,10.304l-11.378,21.47C340.07,250.435,333.368,252.5,327.977,249.643z"/>
					<path fill="#FF3B5E" d="M327.492,250.561c-5.393-2.851-7.453-9.563-4.598-14.952l11.347-21.418
						c4.808,3.646,11.735,8.019,19.578,10.303l-11.374,21.47C339.587,251.354,332.88,253.42,327.492,250.561z"/>
				</g>
				<path fill="#FFFFFF" d="M348.405,247.894c-8.039-6.31-9.442-17.985-3.133-26.024c6.308-8.035,17.981-9.442,26.019-3.137
					c8.041,6.313,9.442,17.987,3.133,26.025C368.117,252.795,356.442,254.205,348.405,247.894z"/>
				<g>
					<path fill="#E8F9FF" d="M346.396,222.754c-5.676,7.227-4.601,17.606,2.306,23.533l21.101-26.878
						C362.406,214.105,352.071,215.522,346.396,222.754z"/>
					<path fill="#C1D8E0" d="M371.073,220.405l-21.096,26.877c7.393,5.232,17.668,3.795,23.325-3.409
						C378.956,236.669,377.912,226.351,371.073,220.405z"/>
				</g>
			</g>
			<g>
				<g>
					<g>
						<polygon fill="#2B2B2B" points="567.49,189.483 565.549,196.811 568.891,196.811 568.891,189.483 						"/>
						<polygon fill="#2B2B2B" points="570.29,189.483 568.891,189.483 568.891,196.811 572.227,196.811 						"/>
					</g>
					<rect x="568.779" y="172.659" fill="#2B2B2B" width="0.221" height="31.869"/>
					<g>
						<polygon fill="#E8F9FF" points="565.243,195.68 565.243,198.442 563.471,198.442 563.471,200.368 568.891,200.368 
							568.891,195.68 						"/>
						<polygon fill="#C1D8E0" points="574.311,198.442 572.54,198.442 572.54,195.68 568.891,195.68 568.891,200.368 
							574.311,200.368 						"/>
						<rect x="562.137" y="229.258" fill="#2B2B2B" width="6.754" height="4.425"/>
						<rect x="568.891" y="229.258" fill="#2B2B2B" width="6.749" height="4.425"/>
						<path fill="#E8F9FF" d="M559.773,248.784c-0.289,0-0.526,0.354-0.526,0.782s0.237,0.778,0.526,0.778h5.465v8.452h-3.161
							c-0.22,0-0.394,0.352-0.394,0.779c0,0.429,0.174,0.78,0.394,0.78h6.813v-11.571H559.773z"/>
						<path fill="#C1D8E0" d="M578.006,248.784h-9.115v11.571h6.809c0.223,0,0.397-0.352,0.397-0.78
							c0-0.428-0.175-0.779-0.397-0.779h-3.159v-8.452h5.466c0.29,0,0.528-0.35,0.528-0.778S578.296,248.784,578.006,248.784z"/>
					</g>
					<g>
						<polygon fill="#D92E4D" points="568.891,199.77 562.137,199.77 562.137,233.149 568.891,233.149 575.64,233.149 
							575.64,199.77 						"/>
						<rect x="562.137" y="199.77" fill="#FF3B5E" width="6.754" height="33.379"/>
						<rect x="568.891" y="199.77" fill="#D92E4D" width="6.749" height="33.379"/>
						<polygon fill="#E8F9FF" points="562.137,233.149 562.137,233.575 562.137,248.901 568.891,248.901 568.891,233.575 
							568.891,233.149 						"/>
						<polygon fill="#C1D8E0" points="568.891,233.149 568.891,233.575 568.891,248.901 575.64,248.901 575.64,233.575 
							575.64,233.149 						"/>
					</g>
					<g>
						<g>
							<rect x="566.161" y="214.702" fill="#2B2B2B" width="5.542" height="0.445"/>
							<rect x="567.375" y="211.326" fill="#2B2B2B" width="3.116" height="0.445"/>
							<rect x="566.161" y="221.456" fill="#2B2B2B" width="5.542" height="0.449"/>
							<rect x="567.375" y="218.08" fill="#2B2B2B" width="3.116" height="0.449"/>
							<rect x="566.161" y="207.948" fill="#2B2B2B" width="5.542" height="0.452"/>
							<rect x="567.375" y="204.57" fill="#2B2B2B" width="3.116" height="0.449"/>
						</g>
						<g>
							<rect x="566.075" y="234.788" fill="#2B2B2B" width="5.537" height="0.444"/>
							<rect x="567.285" y="231.408" fill="#2B2B2B" width="3.118" height="0.446"/>
							<rect x="566.075" y="241.54" fill="#2B2B2B" width="5.537" height="0.445"/>
							<rect x="567.285" y="238.165" fill="#2B2B2B" width="3.118" height="0.445"/>
							<rect x="566.075" y="228.033" fill="#2B2B2B" width="5.537" height="0.445"/>
							<rect x="567.285" y="224.652" fill="#2B2B2B" width="3.118" height="0.452"/>
						</g>
					</g>
				</g>
				<g>
					<path fill="#C1D8E0" d="M597.882,201.964v-25.431c0-1.648-0.973-4.696-3.308-4.696h-1.465h-1.47
						c-2.334,0-3.309,3.048-3.309,4.696v25.431c-1.429,1.486-3.032,3.748-3.032,5.262v46.877c0,2.428,2.416,6.251,5.408,6.251h2.402
						h2.399c2.986,0,5.406-3.823,5.406-6.251v-46.877C600.915,205.712,599.311,203.451,597.882,201.964z"/>
					<g>
						<path fill="#E8F9FF" d="M591.64,171.837c-2.334,0-3.309,3.048-3.309,4.696v25.431c-1.429,1.486-3.032,3.748-3.032,5.262
							v46.877c0,2.428,2.416,6.251,5.408,6.251h2.402v-88.517H591.64z"/>
						<path fill="#C1D8E0" d="M597.882,201.964v-25.431c0-1.648-0.973-4.696-3.308-4.696h-1.465v88.517h2.399
							c2.986,0,5.406-3.823,5.406-6.251v-46.877C600.915,205.712,599.311,203.451,597.882,201.964z"/>
					</g>
					<g>
						<g>
							<g>
								<rect x="589.646" y="204.861" fill="#2B2B2B" width="6.92" height="0.443"/>
							</g>
						</g>
						<g>
							<g>
								<rect x="589.646" y="210.505" fill="#2B2B2B" width="6.92" height="0.448"/>
							</g>
						</g>
						<g>
							<g>
								<rect x="589.646" y="216.149" fill="#2B2B2B" width="6.92" height="0.445"/>
							</g>
						</g>
						<g>
							<g>
								<rect x="589.646" y="221.793" fill="#2B2B2B" width="6.92" height="0.441"/>
							</g>
						</g>
						<g>
							<g>
								<rect x="589.646" y="227.44" fill="#2B2B2B" width="6.92" height="0.441"/>
							</g>
						</g>
						<g>
							<g>
								<rect x="589.646" y="233.081" fill="#2B2B2B" width="6.92" height="0.444"/>
							</g>
						</g>
					</g>
					<g>
						<g>
							<g>
								<rect x="589.646" y="238.085" fill="#2B2B2B" width="6.92" height="0.445"/>
							</g>
						</g>
						<g>
							<g>
								<rect x="589.646" y="243.731" fill="#2B2B2B" width="6.92" height="0.444"/>
							</g>
						</g>
						<g>
							<g>
								<rect x="589.646" y="249.375" fill="#2B2B2B" width="6.92" height="0.445"/>
							</g>
						</g>
					</g>
					<path fill="#2B2B2B" d="M593.354,253.266c0,0.359-0.108,0.648-0.244,0.648l0,0c-0.142,0-0.253-0.289-0.253-0.648v-58.019
						c0-0.359,0.111-0.645,0.253-0.645l0,0c0.136,0,0.244,0.286,0.244,0.645V253.266z"/>
					<path fill="#D92E4D" d="M593.109,174.457c-1.336,0-2.419,1.081-2.419,2.417c0,0.785,0.378,1.474,0.956,1.917v34.278
						c0,2.467,0.454,3.301,1.012,3.301h0.451h0.448c0.554,0,1.006-0.833,1.006-3.301v-34.278c0.581-0.444,0.96-1.133,0.96-1.917
						C595.523,175.538,594.441,174.457,593.109,174.457z"/>
					<g>
						<path fill="#FF3B5E" d="M590.69,176.874c0,0.785,0.378,1.474,0.956,1.917v34.278c0,2.467,0.454,3.301,1.012,3.301h0.451
							v-41.913C591.773,174.457,590.69,175.538,590.69,176.874z"/>
						<path fill="#D92E4D" d="M593.109,174.457v41.913h0.448c0.554,0,1.006-0.833,1.006-3.301v-34.278
							c0.581-0.444,0.96-1.133,0.96-1.917C595.523,175.538,594.441,174.457,593.109,174.457z"/>
					</g>
				</g>
			</g>
			<g>
				<path fill="#D92E4D" d="M799.828,301.282c-1.246-0.116-2.451-0.172-3.577-0.172c-9.022,0-13.219,3.884-17.765,8.957
					l-0.967,1.084l-0.003-0.007l-0.962-1.072c-4.554-5.078-8.752-8.962-17.77-8.962c-1.124,0-2.331,0.056-3.577,0.172
					c-7.516,0.685-16.1,7.082-17.184,19.449v4.258c0.557,6.52,3.718,13.387,9.396,20.411c6.551,8.101,16.676,16.709,30.096,25.586
					c0,0,0,0,0.003,0.002c13.417-8.878,23.542-17.487,30.093-25.588c5.68-7.024,8.844-13.896,9.396-20.385v-4.259
					C815.925,308.358,807.343,301.967,799.828,301.282z M807.18,334.866h-8.663l-6.688,14.797l-4.21-26.015l-5.771,13.146
					l-2.411-5.496l-1.92,2.496l-9.429,12.276l-0.962-21.183l-4.452,10.627l-15.588,0.72l-0.123-2.295l13.956-0.65l8.207-19.592
					l1.159,25.518l7.231-9.408l2.527-3.29l1.804,4.117l6.896-15.7l4.235,26.178l3.864-8.548h10.336V334.866z"/>
				<path fill="#FF3B5E" d="M768.088,346.071l-0.962-21.183l-4.452,10.627l-15.588,0.72l-0.123-2.295l13.956-0.65l8.207-19.592
					l1.159,25.518l7.231-9.408v-18.663l-0.962-1.072c-4.554-5.078-8.752-8.962-17.77-8.962c-1.124,0-2.331,0.056-3.577,0.172
					c-7.516,0.685-16.1,7.082-17.184,19.449v4.258c0.557,6.52,3.718,13.387,9.396,20.411c6.551,8.101,16.676,16.709,30.096,25.586
					v-37.191L768.088,346.071z"/>
				<path fill="#D92E4D" d="M799.828,301.282c-1.246-0.116-2.451-0.172-3.577-0.172c-9.022,0-13.219,3.884-17.765,8.957
					l-0.967,1.084l-0.003-0.007v18.663l2.527-3.29l1.804,4.117l6.896-15.7l4.235,26.178l3.864-8.548h10.336v2.302h-8.663
					l-6.688,14.797l-4.21-26.015l-5.771,13.146l-2.411-5.496l-1.92,2.496v37.191c0,0,0,0,0.003,0.002
					c13.417-8.878,23.542-17.487,30.093-25.588c5.68-7.024,8.844-13.896,9.396-20.385v-4.259
					C815.925,308.358,807.343,301.967,799.828,301.282z"/>
				<polygon fill="#FFFFFF" points="769.126,313.698 760.919,333.29 746.963,333.94 747.086,336.235 762.674,335.516 
					767.126,324.889 768.088,346.071 777.517,333.795 777.517,329.808 770.285,339.216 				"/>
				<polygon fill="#C1D8E0" points="779.437,331.299 781.848,336.795 787.619,323.648 791.829,349.663 798.517,334.866 
					807.18,334.866 807.18,332.564 796.844,332.564 792.979,341.112 788.744,314.935 781.848,330.635 780.044,326.518 
					777.517,329.808 777.517,333.795 				"/>
			</g>
		</g>
	</g>
	<g>
		<g>
			<polygon fill="#F4F0ED" points="695.741,-28.101 642.849,-28.101 642.849,-73.659 695.741,-73.659 680.026,-50.878 			"/>
			<polygon fill="#DDD3CC" points="669.296,-46.017 642.849,-28.101 642.849,-73.659 			"/>
			<polygon fill="#F4F0ED" points="266.589,-28.101 319.483,-28.101 319.483,-73.659 266.589,-73.659 282.305,-50.878 			"/>
			<polygon fill="#DDD3CC" points="293.037,-46.017 319.483,-28.101 319.483,-73.659 			"/>
			<rect x="293.037" y="-91.575" fill="#FFFFFF" width="376.259" height="45.559"/>
		</g>
		<text transform="matrix(1 0 0 1 310.123 -53.5723)" fill="#FC8681" font-family="'BebasNeue'" font-size="42.3222">HEALTH CARE INFOGRAPHIC</text>
	</g>
</g>
</svg>
